<svg width="25" height="24" viewBox="0 0 25 24" fill="none" xmlns="http://www.w3.org/2000/svg">
<path d="M13.0954 6C13.3322 6 13.5241 6.19401 13.5241 6.43333V15.114L17.331 11.2573C17.4115 11.1753 17.5211 11.1292 17.6354 11.1292C17.7497 11.1292 17.8593 11.1753 17.9398 11.2573L18.5399 11.8727C18.6211 11.954 18.6667 12.0648 18.6667 12.1803C18.6667 12.2959 18.6211 12.4066 18.5399 12.488L13.2841 17.8093C13.1636 17.9313 13.0001 17.9998 12.8297 18H12.5038C12.3337 17.998 12.1709 17.9297 12.0494 17.8093L6.79356 12.488C6.7124 12.4066 6.66675 12.2959 6.66675 12.1803C6.66675 12.0648 6.7124 11.954 6.79356 11.8727L7.40231 11.2573C7.48133 11.1758 7.58949 11.1299 7.7024 11.1299C7.81531 11.1299 7.92347 11.1758 8.00249 11.2573L11.8093 15.114V6.43333C11.8093 6.19401 12.0013 6 12.238 6H13.0954Z" fill="white"/>
</svg>
