<svg xmlns="http://www.w3.org/2000/svg" width="16" height="16" viewBox="0 0 16 16" fill="none">
	<path fill-rule="evenodd" clip-rule="evenodd" d="M5.52873 13.1378C5.40374 13.0128 5.33353 12.8432 5.33353 12.6665C5.33353 12.4897 5.40374 12.3201 5.52873 12.1951L9.72427 7.99955L5.52873 3.80401C5.46505 3.74251 5.41426 3.66894 5.37932 3.5876C5.34438 3.50626 5.32599 3.41878 5.32522 3.33026C5.32445 3.24173 5.34132 3.15394 5.37484 3.07201C5.40836 2.99007 5.45787 2.91563 5.52047 2.85303C5.58307 2.79044 5.6575 2.74093 5.73944 2.70741C5.82137 2.67389 5.90916 2.65702 5.99769 2.65779C6.08621 2.65856 6.1737 2.67695 6.25504 2.71189C6.33638 2.74683 6.40994 2.79762 6.47144 2.8613L11.1383 7.5282C11.2633 7.65322 11.3335 7.82277 11.3335 7.99955C11.3335 8.17634 11.2633 8.34588 11.1383 8.47091L6.47144 13.1378C6.34642 13.2628 6.17687 13.333 6.00009 13.333C5.8233 13.333 5.65376 13.2628 5.52873 13.1378Z" fill="#041336" stroke="#041336" stroke-width="0.4" />
</svg>
