<svg width="24" height="25" viewBox="0 0 24 25" fill="none" xmlns="http://www.w3.org/2000/svg">
<path fill-rule="evenodd" clip-rule="evenodd" d="M17.9999 12.5C17.9999 12.7387 17.9051 12.9676 17.7363 13.1364C17.5675 13.3052 17.3386 13.4 17.0999 13.4H9.13431L11.7239 15.752C11.8131 15.8329 11.8852 15.9309 11.9358 16.0402C11.9865 16.1495 12.0147 16.2678 12.0187 16.3882C12.0228 16.5086 12.0027 16.6286 11.9595 16.741C11.9164 16.8535 11.8511 16.9561 11.7675 17.0429C11.684 17.1297 11.5839 17.1988 11.4731 17.2461C11.3624 17.2935 11.2432 17.3181 11.1228 17.3186C11.0024 17.3191 10.883 17.2954 10.7719 17.2489C10.6608 17.2024 10.5601 17.1341 10.4759 17.048L6.27591 13.148C6.18881 13.0641 6.11952 12.9634 6.0722 12.8521C6.02488 12.7407 6.00049 12.621 6.00049 12.5C6.00049 12.379 6.02488 12.2593 6.0722 12.148C6.11952 12.0366 6.18881 11.936 6.27591 11.852L10.4759 7.95201C10.5601 7.86591 10.6608 7.7976 10.7719 7.75111C10.883 7.70463 11.0024 7.68093 11.1228 7.6814C11.2432 7.68188 11.3624 7.70653 11.4731 7.75389C11.5839 7.80125 11.684 7.87036 11.7675 7.95712C11.8511 8.04388 11.9164 8.14653 11.9595 8.25898C12.0027 8.37144 12.0228 8.49141 12.0187 8.61179C12.0147 8.73217 11.9865 8.85051 11.9358 8.95979C11.8852 9.06908 11.8131 9.16708 11.7239 9.24801L9.13431 11.6H17.0999C17.3386 11.6 17.5675 11.6948 17.7363 11.8636C17.9051 12.0324 17.9999 12.2613 17.9999 12.5Z" fill="white"/>
</svg>
