<svg width="228" height="185" viewBox="0 0 228 185" fill="none" xmlns="http://www.w3.org/2000/svg">
<path d="M207.366 0H22.8C10.26 0 0.114 10.4062 0.114 23.125V69.375C12.654 69.375 22.8 79.7812 22.8 92.5C22.8 105.219 12.654 115.625 0 115.625V161.875C0 174.594 10.26 185 22.8 185H205.2C217.74 185 228 174.594 228 161.875V23.125C228 10.4062 218.766 0 207.366 0ZM179.322 107.531L78.318 134.819L59.394 101.519L69.996 98.6281L84.36 110.075L111.606 102.675L84.246 54.575L100.206 50.1813L145.92 93.425L173.736 85.9094C176.547 85.1554 179.539 85.5587 182.058 87.0313C184.578 88.504 186.422 90.9267 187.188 93.7719C187.897 96.6524 187.472 99.6997 186.004 102.268C184.535 104.836 182.139 106.724 179.322 107.531Z" fill="white"/>
</svg>
