<svg width="89" height="72" viewBox="0 0 89 72" fill="none" xmlns="http://www.w3.org/2000/svg">
<path d="M80.8318 0H8.8875C3.99938 0 0.0444375 4.05 0.0444375 9V27C4.93256 27 8.8875 31.05 8.8875 36C8.8875 40.95 4.93256 45 0 45V63C0 67.95 3.99938 72 8.8875 72H79.9875C84.8756 72 88.875 67.95 88.875 63V9C88.875 4.05 85.2756 0 80.8318 0ZM69.9002 41.85L30.5286 52.47L23.1519 39.51L27.2846 38.385L32.8838 42.84L43.5043 39.96L32.8393 21.24L39.0606 19.53L56.88 36.36L67.7228 33.435C68.8186 33.1416 69.9846 33.2985 70.9668 33.8717C71.9489 34.4448 72.6676 35.3877 72.9664 36.495C73.2426 37.6161 73.0771 38.802 72.5047 39.8016C71.9324 40.8012 70.9982 41.5359 69.9002 41.85Z" fill="white"/>
</svg>
