<svg width="22" height="22" viewBox="0 0 22 22" fill="none" xmlns="http://www.w3.org/2000/svg">
<path d="M7.33325 5.27051C6.95742 5.27051 6.64575 4.95884 6.64575 4.58301V1.83301C6.64575 1.45717 6.95742 1.14551 7.33325 1.14551C7.70908 1.14551 8.02075 1.45717 8.02075 1.83301V4.58301C8.02075 4.95884 7.70908 5.27051 7.33325 5.27051Z" fill="#222325"/>
<path d="M14.6667 5.27051C14.2909 5.27051 13.9792 4.95884 13.9792 4.58301V1.83301C13.9792 1.45717 14.2909 1.14551 14.6667 1.14551C15.0426 1.14551 15.3542 1.45717 15.3542 1.83301V4.58301C15.3542 4.95884 15.0426 5.27051 14.6667 5.27051Z" fill="#222325"/>
<path d="M7.79167 13.2921C7.6725 13.2921 7.55333 13.2646 7.44333 13.2188C7.32417 13.173 7.2325 13.1088 7.14083 13.0263C6.97583 12.8521 6.875 12.6229 6.875 12.3754C6.875 12.2563 6.9025 12.1371 6.94833 12.0271C6.99417 11.9171 7.05833 11.8163 7.14083 11.7246C7.2325 11.6421 7.32417 11.5779 7.44333 11.5321C7.77333 11.3946 8.18583 11.468 8.4425 11.7246C8.6075 11.8988 8.70833 12.1371 8.70833 12.3754C8.70833 12.4304 8.69917 12.4946 8.69 12.5588C8.68083 12.6138 8.6625 12.6688 8.635 12.7238C8.61666 12.7788 8.58917 12.8338 8.5525 12.8888C8.525 12.9346 8.47917 12.9804 8.4425 13.0263C8.26833 13.1913 8.03 13.2921 7.79167 13.2921Z" fill="#222325"/>
<path d="M10.9999 13.2913C10.8808 13.2913 10.7616 13.2638 10.6516 13.218C10.5324 13.1722 10.4408 13.108 10.3491 13.0255C10.1841 12.8513 10.0833 12.6221 10.0833 12.3746C10.0833 12.2555 10.1108 12.1363 10.1566 12.0263C10.2024 11.9163 10.2666 11.8155 10.3491 11.7238C10.4408 11.6413 10.5324 11.5771 10.6516 11.5313C10.9816 11.3846 11.3941 11.4671 11.6508 11.7238C11.8158 11.898 11.9166 12.1363 11.9166 12.3746C11.9166 12.4296 11.9074 12.4938 11.8983 12.558C11.8891 12.613 11.8708 12.668 11.8433 12.723C11.8249 12.778 11.7974 12.833 11.7608 12.888C11.7333 12.9338 11.6874 12.9796 11.6508 13.0255C11.4766 13.1905 11.2383 13.2913 10.9999 13.2913Z" fill="#222325"/>
<path d="M14.2084 13.2913C14.0892 13.2913 13.9701 13.2638 13.8601 13.218C13.7409 13.1722 13.6492 13.108 13.5576 13.0255C13.5209 12.9796 13.4842 12.9338 13.4476 12.888C13.4109 12.833 13.3834 12.778 13.3651 12.723C13.3376 12.668 13.3192 12.613 13.3101 12.558C13.3009 12.4938 13.2917 12.4296 13.2917 12.3746C13.2917 12.1363 13.3926 11.898 13.5576 11.7238C13.6492 11.6413 13.7409 11.5771 13.8601 11.5313C14.1992 11.3846 14.6026 11.4671 14.8592 11.7238C15.0242 11.898 15.1251 12.1363 15.1251 12.3746C15.1251 12.4296 15.1159 12.4938 15.1067 12.558C15.0976 12.613 15.0792 12.668 15.0517 12.723C15.0334 12.778 15.0059 12.833 14.9692 12.888C14.9417 12.9338 14.8959 12.9796 14.8592 13.0255C14.6851 13.1905 14.4467 13.2913 14.2084 13.2913Z" fill="#222325"/>
<path d="M7.79167 16.4996C7.6725 16.4996 7.55333 16.4721 7.44333 16.4263C7.33333 16.3804 7.2325 16.3163 7.14083 16.2338C6.97583 16.0596 6.875 15.8213 6.875 15.5829C6.875 15.4638 6.9025 15.3446 6.94833 15.2346C6.99417 15.1154 7.05833 15.0146 7.14083 14.9321C7.48 14.5929 8.10333 14.5929 8.4425 14.9321C8.6075 15.1063 8.70833 15.3446 8.70833 15.5829C8.70833 15.8213 8.6075 16.0596 8.4425 16.2338C8.26833 16.3988 8.03 16.4996 7.79167 16.4996Z" fill="#222325"/>
<path d="M10.9999 16.4996C10.7616 16.4996 10.5233 16.3988 10.3491 16.2338C10.1841 16.0596 10.0833 15.8213 10.0833 15.5829C10.0833 15.4638 10.1108 15.3446 10.1566 15.2346C10.2024 15.1154 10.2666 15.0146 10.3491 14.9321C10.6883 14.5929 11.3116 14.5929 11.6508 14.9321C11.7333 15.0146 11.7974 15.1154 11.8433 15.2346C11.8891 15.3446 11.9166 15.4638 11.9166 15.5829C11.9166 15.8213 11.8158 16.0596 11.6508 16.2338C11.4766 16.3988 11.2383 16.4996 10.9999 16.4996Z" fill="#222325"/>
<path d="M14.2084 16.5002C13.9701 16.5002 13.7317 16.3993 13.5576 16.2343C13.4751 16.1518 13.4109 16.051 13.3651 15.9318C13.3192 15.8218 13.2917 15.7027 13.2917 15.5835C13.2917 15.4643 13.3192 15.3452 13.3651 15.2352C13.4109 15.116 13.4751 15.0152 13.5576 14.9327C13.7684 14.7218 14.0892 14.621 14.3826 14.6852C14.4467 14.6943 14.5017 14.7127 14.5567 14.7402C14.6117 14.7585 14.6667 14.786 14.7217 14.8227C14.7676 14.8502 14.8134 14.896 14.8592 14.9327C15.0242 15.1068 15.1251 15.3452 15.1251 15.5835C15.1251 15.8218 15.0242 16.0602 14.8592 16.2343C14.6851 16.3993 14.4467 16.5002 14.2084 16.5002Z" fill="#222325"/>
<path d="M18.7916 9.01953H3.20825C2.83242 9.01953 2.52075 8.70786 2.52075 8.33203C2.52075 7.9562 2.83242 7.64453 3.20825 7.64453H18.7916C19.1674 7.64453 19.4791 7.9562 19.4791 8.33203C19.4791 8.70786 19.1674 9.01953 18.7916 9.01953Z" fill="#222325"/>
<path d="M14.6667 20.8538H7.33333C3.9875 20.8538 2.0625 18.9288 2.0625 15.583V7.79134C2.0625 4.44551 3.9875 2.52051 7.33333 2.52051H14.6667C18.0125 2.52051 19.9375 4.44551 19.9375 7.79134V15.583C19.9375 18.9288 18.0125 20.8538 14.6667 20.8538ZM7.33333 3.89551C4.71167 3.89551 3.4375 5.16967 3.4375 7.79134V15.583C3.4375 18.2047 4.71167 19.4788 7.33333 19.4788H14.6667C17.2883 19.4788 18.5625 18.2047 18.5625 15.583V7.79134C18.5625 5.16967 17.2883 3.89551 14.6667 3.89551H7.33333Z" fill="#222325"/>
</svg>
