<svg xmlns="http://www.w3.org/2000/svg" width="32" height="33" viewBox="0 0 32 33" fill="none">
	<path d="M22.0613 12.4388C22.2011 12.5781 22.312 12.7437 22.3878 12.926C22.4635 13.1083 22.5024 13.3038 22.5024 13.5013C22.5024 13.6987 22.4635 13.8942 22.3878 14.0765C22.312 14.2588 22.2011 14.4244 22.0613 14.5638L15.0613 21.5637C14.9219 21.7036 14.7563 21.8145 14.574 21.8903C14.3917 21.966 14.1962 22.0049 13.9988 22.0049C13.8013 22.0049 13.6059 21.966 13.4235 21.8903C13.2412 21.8145 13.0756 21.7036 12.9363 21.5637L9.93626 18.5637C9.79673 18.4242 9.68605 18.2586 9.61053 18.0763C9.53502 17.894 9.49615 17.6986 9.49615 17.5012C9.49615 17.3039 9.53502 17.1085 9.61053 16.9262C9.68605 16.7439 9.79673 16.5783 9.93626 16.4388C10.0758 16.2992 10.2414 16.1885 10.4237 16.113C10.606 16.0375 10.8014 15.9986 10.9988 15.9986C11.1961 15.9986 11.3915 16.0375 11.5738 16.113C11.7561 16.1885 11.9217 16.2992 12.0613 16.4388L14 18.375L19.9388 12.435C20.0783 12.2958 20.2439 12.1854 20.4262 12.1103C20.6084 12.0351 20.8037 11.9966 21.0008 11.9969C21.1979 11.9973 21.393 12.0365 21.575 12.1123C21.757 12.1881 21.9222 12.299 22.0613 12.4388ZM29.5 16.5C29.5 19.17 28.7082 21.7801 27.2248 24.0002C25.7414 26.2203 23.633 27.9506 21.1662 28.9724C18.6994 29.9942 15.985 30.2615 13.3663 29.7406C10.7475 29.2197 8.34207 27.934 6.45406 26.0459C4.56606 24.1579 3.28031 21.7525 2.7594 19.1337C2.2385 16.515 2.50585 13.8006 3.52763 11.3338C4.54942 8.86697 6.27974 6.75856 8.49981 5.27516C10.7199 3.79176 13.33 3 16 3C19.5792 3.00397 23.0107 4.42756 25.5416 6.95844C28.0724 9.48932 29.496 12.9208 29.5 16.5ZM26.5 16.5C26.5 14.4233 25.8842 12.3932 24.7304 10.6665C23.5767 8.9398 21.9368 7.59399 20.0182 6.79926C18.0996 6.00454 15.9884 5.79661 13.9516 6.20175C11.9148 6.6069 10.0438 7.60693 8.57538 9.07538C7.10693 10.5438 6.10691 12.4148 5.70176 14.4516C5.29662 16.4884 5.50455 18.5996 6.29927 20.5182C7.09399 22.4368 8.4398 24.0767 10.1665 25.2304C11.8932 26.3842 13.9233 27 16 27C18.7839 26.997 21.4529 25.8898 23.4213 23.9213C25.3898 21.9528 26.497 19.2839 26.5 16.5Z" fill="#3182FF" />
</svg>
