<svg xmlns="http://www.w3.org/2000/svg" width="24" height="24" viewBox="0 0 24 24" fill="none">
	<path fill-rule="evenodd" clip-rule="evenodd" d="M5.29209 5.58052C5.01022 5.83042 5 5.97447 5 6C5 6.02553 5.01022 6.16958 5.29209 6.41948C5.57279 6.66834 6.03602 6.93815 6.69427 7.18499C8.0034 7.67591 9.87903 8 12 8C14.121 8 15.9966 7.67591 17.3057 7.18499C17.964 6.93815 18.4272 6.66834 18.7079 6.41948C18.9898 6.16958 19 6.02553 19 6C19 5.97447 18.9898 5.83042 18.7079 5.58052C18.4272 5.33166 17.964 5.06185 17.3057 4.81501C15.9966 4.32409 14.121 4 12 4C9.87903 4 8.0034 4.32409 6.69427 4.81501C6.03602 5.06185 5.57279 5.33166 5.29209 5.58052ZM3.96527 4.08401C3.43749 4.55194 3 5.19711 3 6V12V18C3 18.8029 3.43749 19.4481 3.96527 19.916C4.49422 20.385 5.20256 20.7616 5.99202 21.0576C7.57833 21.6525 9.70269 22 12 22C14.2973 22 16.4217 21.6525 18.008 21.0576C18.7974 20.7616 19.5058 20.385 20.0347 19.916C20.5625 19.4481 21 18.8029 21 18V12V6C21 5.19711 20.5625 4.55194 20.0347 4.08401C19.5058 3.61504 18.7974 3.2384 18.008 2.94235C16.4217 2.34749 14.2973 2 12 2C9.70269 2 7.57833 2.34749 5.99202 2.94235C5.20256 3.2384 4.49422 3.61504 3.96527 4.08401ZM19 12V8.61619C18.6909 8.77981 18.3574 8.92662 18.008 9.05765C16.4217 9.65251 14.2973 10 12 10C9.70269 10 7.57833 9.65251 5.99202 9.05765C5.64262 8.92662 5.3091 8.77981 5 8.61619V12C5 12.0255 5.01022 12.1696 5.29209 12.4195C5.57279 12.6683 6.03602 12.9381 6.69427 13.185C8.0034 13.6759 9.87903 14 12 14C14.121 14 15.9966 13.6759 17.3057 13.185C17.964 12.9381 18.4272 12.6683 18.7079 12.4195C18.9898 12.1696 19 12.0255 19 12ZM5 14.6162C5.3091 14.7798 5.64262 14.9266 5.99202 15.0576C7.57833 15.6525 9.70269 16 12 16C14.2973 16 16.4217 15.6525 18.008 15.0576C18.3574 14.9266 18.6909 14.7798 19 14.6162V18C19 18.0255 18.9898 18.1696 18.7079 18.4195C18.4272 18.6683 17.964 18.9381 17.3057 19.185C15.9966 19.6759 14.121 20 12 20C9.87903 20 8.0034 19.6759 6.69427 19.185C6.03602 18.9381 5.57279 18.6683 5.29209 18.4195C5.01022 18.1696 5 18.0255 5 18V14.6162Z" fill="white" />
	<path d="M5.29209 5.58052L5.45794 5.76759L5.29209 5.58052ZM5.29209 6.41948L5.45794 6.23241L5.29209 6.41948ZM6.69427 7.18499L6.60649 7.41907H6.60649L6.69427 7.18499ZM17.3057 7.18499L17.3935 7.41907L17.3057 7.18499ZM18.7079 6.41948L18.8738 6.60654V6.60654L18.7079 6.41948ZM18.7079 5.58052L18.8738 5.39346L18.7079 5.58052ZM17.3057 4.81501L17.3935 4.58093L17.3057 4.81501ZM6.69427 4.81501L6.60649 4.58093L6.69427 4.81501ZM3.96527 4.08401L3.79942 3.89694V3.89694L3.96527 4.08401ZM3.96527 19.916L3.79942 20.1031H3.79942L3.96527 19.916ZM5.99202 21.0576L5.90424 21.2917L5.90424 21.2917L5.99202 21.0576ZM18.008 21.0576L18.0958 21.2917V21.2917L18.008 21.0576ZM20.0347 19.916L19.8689 19.7289L20.0347 19.916ZM20.0347 4.08401L19.8689 4.27107V4.27107L20.0347 4.08401ZM18.008 2.94235L17.9202 3.17643L18.008 2.94235ZM5.99202 2.94235L5.90424 2.70827L5.99202 2.94235ZM19 8.61619H19.25V8.201L18.883 8.39524L19 8.61619ZM18.008 9.05765L17.9202 8.82357L18.008 9.05765ZM5.99202 9.05765L6.0798 8.82357H6.0798L5.99202 9.05765ZM5 8.61619L5.11696 8.39524L4.75 8.201V8.61619H5ZM5.29209 12.4195L5.12623 12.6065H5.12623L5.29209 12.4195ZM6.69427 13.185L6.78205 12.9509H6.78205L6.69427 13.185ZM17.3057 13.185L17.2179 12.9509L17.3057 13.185ZM18.7079 12.4195L18.8738 12.6065L18.7079 12.4195ZM5.99202 15.0576L6.0798 14.8236H6.0798L5.99202 15.0576ZM5 14.6162L5.11696 14.3952L4.75 14.201V14.6162H5ZM18.008 15.0576L17.9202 14.8236L18.008 15.0576ZM19 14.6162H19.25V14.201L18.883 14.3952L19 14.6162ZM18.7079 18.4195L18.8738 18.6065L18.7079 18.4195ZM17.3057 19.185L17.218 18.9509L17.2179 18.9509L17.3057 19.185ZM6.69427 19.185L6.78205 18.9509L6.78205 18.9509L6.69427 19.185ZM5.29209 18.4195L5.45794 18.2324L5.29209 18.4195ZM5.25 6C5.25 6.06946 5.20907 5.98823 5.45794 5.76759L5.12623 5.39346C4.81137 5.67262 4.75 5.87947 4.75 6H5.25ZM5.45794 6.23241C5.20907 6.01177 5.25 5.93054 5.25 6H4.75C4.75 6.12053 4.81137 6.32738 5.12623 6.60654L5.45794 6.23241ZM6.78205 6.95091C6.14018 6.71021 5.7076 6.45376 5.45794 6.23241L5.12623 6.60654C5.43797 6.88293 5.93185 7.16609 6.60649 7.41907L6.78205 6.95091ZM12 7.75C9.90107 7.75 8.05653 7.42884 6.78205 6.95091L6.60649 7.41907C7.95026 7.92299 9.85698 8.25 12 8.25V7.75ZM17.2179 6.95091C15.9435 7.42884 14.0989 7.75 12 7.75V8.25C14.143 8.25 16.0497 7.92299 17.3935 7.41907L17.2179 6.95091ZM18.5421 6.23241C18.2924 6.45376 17.8598 6.71021 17.2179 6.95091L17.3935 7.41907C18.0681 7.16609 18.562 6.88293 18.8738 6.60654L18.5421 6.23241ZM18.75 6C18.75 5.93054 18.7909 6.01177 18.5421 6.23241L18.8738 6.60654C19.1886 6.32738 19.25 6.12053 19.25 6H18.75ZM18.5421 5.76759C18.7909 5.98823 18.75 6.06946 18.75 6H19.25C19.25 5.87947 19.1886 5.67262 18.8738 5.39346L18.5421 5.76759ZM17.2179 5.04909C17.8598 5.28979 18.2924 5.54624 18.5421 5.76759L18.8738 5.39346C18.562 5.11707 18.0681 4.83391 17.3935 4.58093L17.2179 5.04909ZM12 4.25C14.0989 4.25 15.9435 4.57116 17.2179 5.04909L17.3935 4.58093C16.0497 4.07701 14.143 3.75 12 3.75V4.25ZM6.78205 5.04909C8.05653 4.57116 9.90107 4.25 12 4.25V3.75C9.85698 3.75 7.95026 4.07701 6.60649 4.58093L6.78205 5.04909ZM5.45794 5.76759C5.7076 5.54624 6.14018 5.28979 6.78205 5.04909L6.60649 4.58093C5.93185 4.83391 5.43797 5.11707 5.12623 5.39346L5.45794 5.76759ZM3.25 6C3.25 5.29475 3.63358 4.71219 4.13112 4.27107L3.79942 3.89694C3.2414 4.39168 2.75 5.09947 2.75 6H3.25ZM3.25 12V6H2.75V12H3.25ZM3.25 18V12H2.75V18H3.25ZM4.13112 19.7289C3.63358 19.2878 3.25 18.7053 3.25 18H2.75C2.75 18.9005 3.2414 19.6083 3.79942 20.1031L4.13112 19.7289ZM6.0798 20.8236C5.30676 20.5337 4.62905 20.1704 4.13112 19.7289L3.79942 20.1031C4.35939 20.5995 5.09837 20.9895 5.90424 21.2917L6.0798 20.8236ZM12 21.75C9.72473 21.75 7.63146 21.4054 6.0798 20.8236L5.90424 21.2917C7.52519 21.8996 9.68066 22.25 12 22.25V21.75ZM17.9202 20.8236C16.3685 21.4054 14.2753 21.75 12 21.75V22.25C14.3193 22.25 16.4748 21.8996 18.0958 21.2917L17.9202 20.8236ZM19.8689 19.7289C19.371 20.1704 18.6932 20.5337 17.9202 20.8236L18.0958 21.2917C18.9016 20.9895 19.6406 20.5995 20.2006 20.1031L19.8689 19.7289ZM20.75 18C20.75 18.7053 20.3664 19.2878 19.8689 19.7289L20.2006 20.1031C20.7586 19.6083 21.25 18.9005 21.25 18H20.75ZM20.75 12V18H21.25V12H20.75ZM20.75 6V12H21.25V6H20.75ZM19.8689 4.27107C20.3664 4.71219 20.75 5.29475 20.75 6H21.25C21.25 5.09947 20.7586 4.39168 20.2006 3.89694L19.8689 4.27107ZM17.9202 3.17643C18.6932 3.46633 19.371 3.82961 19.8689 4.27107L20.2006 3.89694C19.6406 3.40047 18.9016 3.01047 18.0958 2.70827L17.9202 3.17643ZM12 2.25C14.2753 2.25 16.3685 2.59456 17.9202 3.17643L18.0958 2.70827C16.4748 2.10041 14.3193 1.75 12 1.75V2.25ZM6.0798 3.17643C7.63146 2.59456 9.72473 2.25 12 2.25V1.75C9.68066 1.75 7.52519 2.10041 5.90424 2.70827L6.0798 3.17643ZM4.13112 4.27107C4.62905 3.82961 5.30676 3.46633 6.0798 3.17643L5.90424 2.70827C5.09837 3.01047 4.35939 3.40047 3.79942 3.89694L4.13112 4.27107ZM18.75 8.61619V12H19.25V8.61619H18.75ZM18.0958 9.29173C18.4535 9.15758 18.797 9.00653 19.117 8.83715L18.883 8.39524C18.5848 8.55309 18.2613 8.69567 17.9202 8.82357L18.0958 9.29173ZM12 10.25C14.3193 10.25 16.4748 9.89959 18.0958 9.29173L17.9202 8.82357C16.3685 9.40544 14.2753 9.75 12 9.75V10.25ZM5.90424 9.29173C7.52519 9.89959 9.68066 10.25 12 10.25V9.75C9.72473 9.75 7.63146 9.40544 6.0798 8.82357L5.90424 9.29173ZM4.88304 8.83715C5.20303 9.00653 5.54651 9.15758 5.90424 9.29173L6.0798 8.82357C5.73873 8.69567 5.41518 8.55309 5.11696 8.39524L4.88304 8.83715ZM5.25 12V8.61619H4.75V12H5.25ZM4.75 12C4.75 12.1205 4.81137 12.3274 5.12623 12.6065L5.45794 12.2324C5.20908 12.0118 5.25 11.9305 5.25 12H4.75ZM5.12623 12.6065C5.43797 12.8829 5.93185 13.1661 6.60649 13.4191L6.78205 12.9509C6.14018 12.7102 5.7076 12.4538 5.45794 12.2324L5.12623 12.6065ZM6.60649 13.4191C7.95026 13.923 9.85698 14.25 12 14.25V13.75C9.90107 13.75 8.05653 13.4288 6.78205 12.9509L6.60649 13.4191ZM12 14.25C14.143 14.25 16.0497 13.923 17.3935 13.4191L17.2179 12.9509C15.9435 13.4288 14.0989 13.75 12 13.75V14.25ZM17.3935 13.4191C18.0681 13.1661 18.562 12.8829 18.8738 12.6065L18.5421 12.2324C18.2924 12.4538 17.8598 12.7102 17.2179 12.9509L17.3935 13.4191ZM18.8738 12.6065C19.1886 12.3274 19.25 12.1205 19.25 12H18.75C18.75 11.9305 18.7909 12.0118 18.5421 12.2324L18.8738 12.6065ZM6.0798 14.8236C5.73873 14.6957 5.41518 14.5531 5.11696 14.3952L4.88304 14.8371C5.20303 15.0065 5.54651 15.1576 5.90424 15.2917L6.0798 14.8236ZM12 15.75C9.72473 15.75 7.63146 15.4054 6.0798 14.8236L5.90424 15.2917C7.52519 15.8996 9.68066 16.25 12 16.25V15.75ZM17.9202 14.8236C16.3685 15.4054 14.2753 15.75 12 15.75V16.25C14.3193 16.25 16.4748 15.8996 18.0958 15.2917L17.9202 14.8236ZM18.883 14.3952C18.5848 14.5531 18.2613 14.6957 17.9202 14.8236L18.0958 15.2917C18.4535 15.1576 18.797 15.0065 19.117 14.8371L18.883 14.3952ZM18.75 14.6162V18H19.25V14.6162H18.75ZM18.75 18C18.75 17.9305 18.7909 18.0118 18.5421 18.2324L18.8738 18.6065C19.1886 18.3274 19.25 18.1205 19.25 18H18.75ZM18.5421 18.2324C18.2924 18.4538 17.8598 18.7102 17.218 18.9509L17.3935 19.4191C18.0681 19.1661 18.562 18.8829 18.8738 18.6065L18.5421 18.2324ZM17.2179 18.9509C15.9435 19.4288 14.0989 19.75 12 19.75V20.25C14.143 20.25 16.0497 19.923 17.3935 19.4191L17.2179 18.9509ZM12 19.75C9.90107 19.75 8.05653 19.4288 6.78205 18.9509L6.60649 19.4191C7.95026 19.923 9.85698 20.25 12 20.25V19.75ZM6.78205 18.9509C6.14018 18.7102 5.7076 18.4538 5.45794 18.2324L5.12623 18.6065C5.43797 18.8829 5.93185 19.1661 6.60649 19.4191L6.78205 18.9509ZM5.45794 18.2324C5.20907 18.0118 5.25 17.9305 5.25 18H4.75C4.75 18.1205 4.81137 18.3274 5.12623 18.6065L5.45794 18.2324ZM5.25 18V14.6162H4.75V18H5.25Z" fill="#222325" />
</svg>
