<svg width="120" height="120" viewBox="0 0 120 120" fill="none" xmlns="http://www.w3.org/2000/svg">
<path d="M55.0047 50H65.0047V75H55.0047V50ZM54.9997 80H64.9997V90H54.9997V80Z" fill="#D8F500"/>
<path d="M68.8397 20.9997C67.0997 17.7247 63.7097 15.6897 59.9997 15.6897C56.2897 15.6897 52.8997 17.7247 51.1597 21.0047L14.4697 90.3197C13.6556 91.8418 13.2523 93.5499 13.2996 95.2755C13.347 97.0011 13.8433 98.6845 14.7397 100.16C15.6232 101.642 16.8779 102.867 18.38 103.716C19.882 104.565 21.5795 105.007 23.3047 105H96.6947C100.235 105 103.44 103.19 105.265 100.16C106.16 98.684 106.655 97.0007 106.703 95.2754C106.75 93.5502 106.347 91.8423 105.535 90.3197L68.8397 20.9997ZM23.3047 94.9997L59.9997 25.6847L96.7197 94.9997H23.3047Z" fill="#D8F500"/>
</svg>
