<svg width="73" height="72" viewBox="0 0 73 72" fill="none" xmlns="http://www.w3.org/2000/svg">
<rect x="0.333496" width="72" height="72" rx="36" fill="white"/>
<path d="M56.2228 34.9573L37.6603 11.3323C37.5024 11.1314 37.3009 10.9689 37.0711 10.8572C36.8413 10.7455 36.589 10.6875 36.3335 10.6875C36.078 10.6875 35.8258 10.7455 35.5959 10.8572C35.3661 10.9689 35.1646 11.1314 35.0067 11.3323L16.4442 34.9573C16.2109 35.2545 16.084 35.6214 16.084 35.9993C16.084 36.3772 16.2109 36.7441 16.4442 37.0413L35.0067 60.6663C35.1646 60.8673 35.3661 61.0297 35.5959 61.1414C35.8258 61.2531 36.078 61.3111 36.3335 61.3111C36.589 61.3111 36.8413 61.2531 37.0711 61.1414C37.3009 61.0297 37.5024 60.8673 37.6603 60.6663L56.2228 37.0413C56.4561 36.7441 56.583 36.3772 56.583 35.9993C56.583 35.6214 56.4561 35.2545 56.2228 34.9573ZM38.021 17.2533L52.2424 35.3517L38.021 41.817V17.2533ZM34.646 41.817L20.4246 35.3517L34.646 17.2533V41.817ZM34.646 45.5231V54.7453L23.3756 40.4016L34.646 45.5231ZM38.021 45.5231L49.2914 40.3995L38.021 54.7432V45.5231Z" fill="#020B20"/>
</svg>
