<svg width="24" height="25" viewBox="0 0 24 25" fill="none" xmlns="http://www.w3.org/2000/svg">
<path d="M5.05499 3.74557C4.98913 3.67132 4.90918 3.61089 4.81979 3.56777C4.7304 3.52465 4.63334 3.4997 4.53423 3.49437C4.43513 3.48904 4.33595 3.50343 4.24245 3.53671C4.14895 3.56999 4.06298 3.6215 3.98953 3.68825C3.91608 3.755 3.85661 3.83566 3.81457 3.92556C3.77252 4.01546 3.74874 4.11282 3.7446 4.21198C3.74045 4.31114 3.75603 4.41014 3.79043 4.50323C3.82483 4.59633 3.87737 4.68167 3.94499 4.75432L5.74874 6.739C2.34374 8.82869 0.879366 12.0499 0.814679 12.1962C0.772035 12.2921 0.75 12.3959 0.75 12.5009C0.75 12.6058 0.772035 12.7096 0.814679 12.8056C0.847491 12.8796 1.64155 14.6403 3.40687 16.4056C5.75905 18.7568 8.72999 19.9999 12 19.9999C13.6806 20.0095 15.3442 19.6635 16.8816 18.9846L18.9441 21.2543C19.0099 21.3286 19.0899 21.389 19.1793 21.4321C19.2686 21.4752 19.3657 21.5002 19.4648 21.5055C19.5639 21.5108 19.6631 21.4965 19.7566 21.4632C19.8501 21.4299 19.9361 21.3784 20.0095 21.3116C20.083 21.2449 20.1424 21.1642 20.1845 21.0743C20.2265 20.9844 20.2503 20.8871 20.2544 20.7879C20.2586 20.6887 20.243 20.5897 20.2086 20.4966C20.1742 20.4036 20.1217 20.3182 20.0541 20.2456L5.05499 3.74557ZM9.49218 10.8556L13.3987 15.154C12.8105 15.4635 12.136 15.5688 11.4814 15.4535C10.8268 15.3381 10.229 15.0086 9.78189 14.5167C9.33481 14.0248 9.06377 13.3983 9.01134 12.7356C8.9589 12.073 9.12803 11.4117 9.49218 10.8556ZM12 18.4999C9.11437 18.4999 6.59343 17.4509 4.50655 15.3828C3.65001 14.5315 2.92149 13.5604 2.34374 12.4999C2.78343 11.6759 4.18687 9.36963 6.7828 7.87057L8.4703 9.72213C7.81699 10.5589 7.48052 11.5996 7.52036 12.6604C7.56021 13.7212 7.97379 14.7338 8.68802 15.5192C9.40225 16.3045 10.3711 16.8121 11.4234 16.9522C12.4757 17.0923 13.5436 16.8558 14.4384 16.2846L15.8194 17.8034C14.6006 18.271 13.3053 18.5072 12 18.4999ZM12.5625 9.55338C12.3671 9.51608 12.1944 9.40268 12.0826 9.23812C11.9708 9.07355 11.9289 8.87131 11.9662 8.67588C12.0035 8.48045 12.1169 8.30784 12.2815 8.19602C12.4461 8.0842 12.6483 8.04233 12.8437 8.07963C13.7996 8.26494 14.67 8.7543 15.325 9.47471C15.98 10.1951 16.3846 11.108 16.4784 12.0771C16.4969 12.2752 16.436 12.4725 16.3091 12.6256C16.1822 12.7787 15.9996 12.8752 15.8016 12.8937C15.7781 12.8952 15.7547 12.8952 15.7312 12.8937C15.5438 12.8945 15.3628 12.8251 15.224 12.6991C15.0852 12.5731 14.9986 12.3997 14.9812 12.2131C14.9181 11.5684 14.6486 10.9614 14.2128 10.4822C13.7771 10.003 13.1982 9.67725 12.5625 9.55338ZM23.1825 12.8056C23.1431 12.8937 22.1934 14.9965 20.055 16.9118C19.9819 16.9793 19.8961 17.0317 19.8027 17.0657C19.7092 17.0998 19.6099 17.1149 19.5105 17.1102C19.4111 17.1055 19.3136 17.081 19.2238 17.0383C19.1339 16.9956 19.0535 16.9354 18.9871 16.8612C18.9208 16.7871 18.8698 16.7005 18.8373 16.6065C18.8047 16.5125 18.7912 16.4129 18.7975 16.3136C18.8037 16.2143 18.8297 16.1173 18.8739 16.0281C18.918 15.939 18.9795 15.8595 19.0547 15.7943C20.1038 14.8517 20.985 13.7378 21.6609 12.4999C21.0819 11.4385 20.3518 10.4668 19.4934 9.61525C17.4066 7.549 14.8856 6.49994 12 6.49994C11.392 6.49921 10.7849 6.54844 10.185 6.64713C10.0874 6.66438 9.98741 6.66213 9.89073 6.64051C9.79404 6.61889 9.70259 6.57833 9.62167 6.52117C9.54074 6.46401 9.47195 6.39138 9.41925 6.30747C9.36656 6.22357 9.33101 6.13006 9.31466 6.03234C9.29832 5.93463 9.30149 5.83464 9.32401 5.73815C9.34652 5.64167 9.38793 5.5506 9.44584 5.47021C9.50375 5.38982 9.57702 5.3217 9.6614 5.26979C9.74579 5.21787 9.83963 5.1832 9.93749 5.16775C10.6192 5.05519 11.309 4.99906 12 4.99994C15.27 4.99994 18.2409 6.24307 20.5931 8.59525C22.3584 10.3606 23.1525 12.1221 23.1853 12.1962C23.2279 12.2921 23.25 12.3959 23.25 12.5009C23.25 12.6058 23.2279 12.7096 23.1853 12.8056H23.1825Z" fill="white"/>
</svg>
