<svg width="320" height="320" viewBox="0 0 320 320" fill="none" xmlns="http://www.w3.org/2000/svg">
<rect x="0.5" y="0.5" width="319" height="319" rx="159.5" stroke="#D8F500"/>
<rect x="18" y="18" width="284" height="284" rx="142" stroke="#D8F500" stroke-width="4"/>
<path d="M197.079 157.325C195.701 138.03 179.623 122.772 159.967 122.772C140.312 122.772 124.233 138.03 122.855 157.325H96.2104C97.6213 123.297 125.611 96.1602 160 96.1602C194.389 96.1602 222.379 123.297 223.79 157.325H197.079Z" fill="white"/>
<path d="M122.889 163.266C124.53 182.298 140.51 197.228 159.968 197.228C179.427 197.228 195.407 182.298 197.048 163.266H223.725C222.052 196.998 194.127 223.84 159.968 223.84C125.809 223.84 97.9177 196.998 96.2114 163.266H122.889Z" fill="white"/>
</svg>
