<svg xmlns="http://www.w3.org/2000/svg" width="24" height="24" viewBox="0 0 24 24" fill="none">
	<path d="M6.07704 5.09157L6.08387 5.08613L6.09052 5.08045C7.67997 3.72172 9.74861 2.90039 12 2.90039C16.7592 2.90039 20.6734 6.57931 21.0611 11.2418L21.0992 11.7004H21.5594H23.0657L20.8 15.099L18.5343 11.7004H19.9609H20.5128L20.4585 11.1512C20.0333 6.84802 16.4167 3.50039 12 3.50039C9.88978 3.50039 7.96553 4.26589 6.4798 5.53595L6.47317 5.54162L6.46675 5.54751C6.43706 5.57474 6.40219 5.59571 6.36421 5.60917C6.32624 5.62263 6.28595 5.62831 6.24573 5.62587C6.20552 5.62342 6.16621 5.61291 6.13015 5.59494C6.09408 5.57698 6.06201 5.55194 6.03583 5.52132L5.65575 5.84619L6.03583 5.52132C6.00965 5.49069 5.98991 5.45511 5.97778 5.41669C5.96565 5.37827 5.96138 5.3378 5.96523 5.2977C5.96907 5.25759 5.98095 5.21867 6.00016 5.18326C6.01937 5.14785 6.04552 5.11666 6.07704 5.09157ZM0.934259 12.3004L3.2 8.90178L5.46574 12.3004H4.03906H3.48722L3.54149 12.8496C3.96668 17.1528 7.58334 20.5004 12 20.5004C14.1102 20.5004 16.0345 19.7349 17.5202 18.4648L17.5268 18.4592L17.5332 18.4533C17.5629 18.426 17.5978 18.4051 17.6358 18.3916C17.6738 18.3781 17.7141 18.3725 17.7543 18.3749C17.7945 18.3774 17.8338 18.3879 17.8699 18.4058L18.0928 17.9583L17.8699 18.4058C17.9059 18.4238 17.938 18.4488 17.9642 18.4795C17.9904 18.5101 18.0101 18.5457 18.0222 18.5841L18.4746 18.4413L18.0222 18.5841C18.0344 18.6225 18.0386 18.663 18.0348 18.7031C18.0309 18.7432 18.019 18.7821 17.9998 18.8175C17.9806 18.8529 17.9545 18.8841 17.923 18.9092L17.9161 18.9147L17.9095 18.9203C16.32 20.2791 14.2514 21.1004 12 21.1004C7.24083 21.1004 3.32664 17.4215 2.93891 12.759L2.90077 12.3004H2.44062H0.934259Z" fill="#3182FF" stroke="#3182FF" />
</svg>
