<svg width="18" height="18" viewBox="0 0 18 18" fill="none" xmlns="http://www.w3.org/2000/svg">
    <path
        d="M17.125 4V14C17.125 16.015 16.015 17.125 14 17.125H9C6.985 17.125 5.875 16.015 5.875 14V13.1667C5.875 12.8217 6.155 12.5417 6.5 12.5417C6.845 12.5417 7.125 12.8217 7.125 13.1667V14C7.125 15.3142 7.68583 15.875 9 15.875H14C15.3142 15.875 15.875 15.3142 15.875 14V4C15.875 2.68583 15.3142 2.125 14 2.125H9C7.68583 2.125 7.125 2.68583 7.125 4V4.83333C7.125 5.17833 6.845 5.45833 6.5 5.45833C6.155 5.45833 5.875 5.17833 5.875 4.83333V4C5.875 1.985 6.985 0.875 9 0.875H14C16.015 0.875 17.125 1.985 17.125 4ZM9.39164 11.0583C9.14748 11.3025 9.14748 11.6983 9.39164 11.9425C9.51331 12.0642 9.67333 12.1258 9.83333 12.1258C9.99333 12.1258 10.1534 12.065 10.275 11.9425L12.775 9.4425C12.8325 9.385 12.8783 9.31582 12.91 9.23916C12.9733 9.08666 12.9733 8.91416 12.91 8.76166C12.8783 8.68499 12.8325 8.61583 12.775 8.55833L10.275 6.05833C10.0309 5.81417 9.63499 5.81417 9.39083 6.05833C9.14666 6.3025 9.14666 6.69834 9.39083 6.9425L10.8242 8.37584H1.5C1.155 8.37584 0.875 8.65584 0.875 9.00084C0.875 9.34584 1.155 9.62584 1.5 9.62584H10.8242L9.39164 11.0583Z"
        fill="currentColor" />
</svg>