<svg width="24" height="24" viewBox="0 0 24 24" fill="none" xmlns="http://www.w3.org/2000/svg">
<g clip-path="url(#clip0_1511_4319)">
<mask id="mask0_1511_4319" style="mask-type:luminance" maskUnits="userSpaceOnUse" x="0" y="0" width="24" height="24">
<path d="M24 0H0V24H24V0Z" fill="white"/>
</mask>
<g mask="url(#mask0_1511_4319)">
<path d="M12 24C18.6274 24 24 18.6274 24 12C24 5.3726 18.6274 0 12 0C5.3726 0 0 5.3726 0 12C0 18.6274 5.3726 24 12 24Z" fill="url(#paint0_radial_1511_4319)"/>
<mask id="mask1_1511_4319" style="mask-type:alpha" maskUnits="userSpaceOnUse" x="0" y="0" width="24" height="24">
<path d="M12 24C18.6274 24 24 18.6274 24 12C24 5.3726 18.6274 0 12 0C5.3726 0 0 5.3726 0 12C0 18.6274 5.3726 24 12 24Z" fill="url(#paint1_radial_1511_4319)"/>
</mask>
<g mask="url(#mask1_1511_4319)">
<path opacity="0.2" d="M-0.400146 6.60012C-0.400146 6.33504 -0.185243 6.12012 0.0798535 6.12012H6.63985C6.90493 6.12012 7.11985 6.33504 7.11985 6.60012V17.7601C7.11985 18.0252 6.90493 18.2401 6.63985 18.2401H0.0798535C-0.185243 18.2401 -0.400146 18.0252 -0.400146 17.7601V6.60012Z" fill="url(#paint2_linear_1511_4319)"/>
<path opacity="0.2" d="M14.48 16.2798C14.48 16.0147 14.6949 15.7998 14.96 15.7998H23.52C23.7851 15.7998 24 16.0147 24 16.2798V20.4398C24 20.7049 23.7851 20.9198 23.52 20.9198H14.96C14.6949 20.9198 14.48 20.7049 14.48 20.4398V16.2798Z" fill="#E74310"/>
<path opacity="0.2" d="M20.0399 17.5596C20.305 17.5596 20.5199 17.7745 20.5199 18.0396V26.1196C20.5199 26.3847 20.305 26.5996 20.0399 26.5996H16.8799C16.6148 26.5996 16.3999 26.3847 16.3999 26.1196V18.0396C16.3999 17.7745 16.6148 17.5596 16.8799 17.5596H20.0399Z" fill="#DF3600"/>
<path opacity="0.1" d="M9.71993 7.7998C9.98501 7.7998 10.1999 8.01472 10.1999 8.2798V14.7198C10.1999 14.9849 9.98501 15.1998 9.71993 15.1998H6.15993C5.89485 15.1998 5.67993 14.9849 5.67993 14.7198V8.2798C5.67993 8.01472 5.89485 7.7998 6.15993 7.7998H9.71993Z" fill="url(#paint3_linear_1511_4319)"/>
<path opacity="0.1" d="M2.28003 9.71926C2.28003 9.45418 2.49493 9.23926 2.76003 9.23926H8.60003C8.86511 9.23926 9.08003 9.45418 9.08003 9.71926V15.8393C9.08003 16.1043 8.86511 16.3193 8.60003 16.3193H2.76003C2.49493 16.3193 2.28003 16.1043 2.28003 15.8393V9.71926Z" fill="url(#paint4_linear_1511_4319)"/>
<path opacity="0.2" d="M23.9998 3.2793C24.2649 3.2793 24.4798 3.4942 24.4798 3.7593V11.8393C24.4798 12.1044 24.2649 12.3193 23.9998 12.3193H16.5598C16.2948 12.3193 16.0798 12.1044 16.0798 11.8393V3.7593C16.0798 3.4942 16.2948 3.2793 16.5598 3.2793H23.9998Z" fill="#FF9776"/>
<path opacity="0.2" d="M19.4798 -2.08008C19.7449 -2.08008 19.9598 -1.86517 19.9598 -1.60008V7.27992C19.9598 7.545 19.7449 7.75992 19.4798 7.75992H15.3198C15.0548 7.75992 14.8398 7.545 14.8398 7.27992V-1.60008C14.8398 -1.86517 15.0548 -2.08008 15.3198 -2.08008H19.4798Z" fill="#FFCA8C"/>
<path opacity="0.2" d="M21.6399 -0.480469C21.905 -0.480469 22.1199 -0.265565 22.1199 -0.000468343V9.87953C22.1199 10.1446 21.905 10.3595 21.6399 10.3595H12.5999C12.3348 10.3595 12.1199 10.1446 12.1199 9.87953V-0.000468493C12.1199 -0.265565 12.3348 -0.480469 12.5999 -0.480469H21.6399Z" fill="url(#paint5_linear_1511_4319)"/>
<path opacity="0.1" d="M8.47984 -3.28027C8.74492 -3.28027 8.95984 -3.06537 8.95984 -2.80027V3.83973C8.95984 4.10481 8.74492 4.31973 8.47984 4.31973H5.31984C5.05476 4.31973 4.83984 4.10481 4.83984 3.83973V-2.80027C4.83984 -3.06537 5.05476 -3.28027 5.31984 -3.28027H8.47984Z" fill="#DF3600"/>
<path opacity="0.1" d="M8.83982 17.3193C9.1049 17.3193 9.31982 17.5343 9.31982 17.7993V23.5193C9.31982 23.7844 9.1049 23.9993 8.83982 23.9993H0.799824C0.534728 23.9993 0.319824 23.7844 0.319824 23.5193L0.319825 17.7993C0.319825 17.5343 0.534728 17.3193 0.799824 17.3193H8.83982Z" fill="#DF3600"/>
<path opacity="0.1" d="M15.92 14.1201C16.1851 14.1201 16.4 14.335 16.4 14.6001V23.5201C16.4 23.7852 16.1851 24.0001 15.92 24.0001H6.71999C6.45491 24.0001 6.23999 23.7852 6.23999 23.5201V14.6001C6.23999 14.335 6.45491 14.1201 6.71999 14.1201H15.92Z" fill="#FFD494"/>
<path opacity="0.2" d="M12.8798 4.19628e-07C13.1449 4.31216e-07 13.3598 0.214904 13.3598 0.48V2.8C13.3598 3.0651 13.1449 3.28 12.8798 3.28H3.2798C3.01471 3.28 2.7998 3.0651 2.7998 2.8V0.48C2.7998 0.214903 3.01471 -1.15878e-08 3.2798 0L12.8798 4.19628e-07Z" fill="#FFD494"/>
<path opacity="0.1" d="M5.30978 23.7664L23.2861 5.79004L22.6696 5.17352L4.69326 23.1499L5.30978 23.7664Z" fill="#DF3600"/>
<path opacity="0.1" d="M3.96139 22.4578L21.9377 4.48145L21.1351 3.67875L3.1587 21.6551L3.96139 22.4578Z" fill="#DF3600"/>
<path opacity="0.1" d="M3.2026 21.6189L21.179 3.64258L20.3763 2.83988L2.39991 20.8162L3.2026 21.6189Z" fill="#F45C2C"/>
<path opacity="0.2" d="M2.48263 20.739L20.459 2.7627L19.7983 2.10206L1.822 20.0784L2.48263 20.739Z" fill="#F45C2C"/>
<path opacity="0.1" d="M1.82052 20.0769L19.7969 2.10059L19.1362 1.43995L1.15989 19.4163L1.82052 20.0769Z" fill="#FFBC6E"/>
<path opacity="0.1" d="M1.38058 19.1971L19.3569 1.2207L18.6963 0.560067L0.719947 18.5364L1.38058 19.1971Z" fill="#DF3600"/>
<path opacity="0.09" d="M-0.739462 13.9167L13.4351 -0.257812L12.7744 -0.918448L-1.4001 13.2561L-0.739462 13.9167Z" fill="#FFD5A4"/>
<path opacity="0.08" d="M-1.49947 13.115L12.675 -1.05957L12.0144 -1.72021L-2.16011 12.4543L-1.49947 13.115Z" fill="#FFD5A4"/>
<path opacity="0.05" d="M-2.1794 12.195L11.9951 -1.97949L11.3345 -2.64013L-2.84004 11.5344L-2.1794 12.195Z" fill="#FFD5A4"/>
<path opacity="0.2" d="M0.380645 15.8427L16.8435 -0.620117L16.1829 -1.28075L-0.279991 15.1821L0.380645 15.8427Z" fill="#FFD5A4"/>
<path opacity="0.2" d="M0.820586 16.8828L17.2834 0.419922L16.6228 -0.240714L0.159951 16.2221L0.820586 16.8828Z" fill="#FFD5A4"/>
<path opacity="0.1" d="M0.1006 14.6367L14.7119 0.0253906L14.0513 -0.635245L-0.560036 13.9761L0.1006 14.6367Z" fill="#FFD5A4"/>
<path opacity="0.1" d="M5.28342 23.7791L23.2598 5.80273L21.9418 4.48473L3.96541 22.4611L5.28342 23.7791Z" fill="#DF3600"/>
<path opacity="0.1" d="M5.28342 23.7791L23.2598 5.80273L21.935 4.47802L3.9587 22.4544L5.28342 23.7791Z" fill="#DF3600"/>
</g>
<path d="M11.9823 14.589L7.41675 11.8882L11.9823 4.31445L16.5438 11.8882L11.9823 14.589Z" fill="white"/>
<path d="M11.9823 19.1872L7.41675 12.7568L11.9823 15.4536L16.5479 12.7568L11.9823 19.1872Z" fill="white"/>
</g>
</g>
<defs>
<radialGradient id="paint0_radial_1511_4319" cx="0" cy="0" r="1" gradientUnits="userSpaceOnUse" gradientTransform="translate(7.84 5.74) rotate(54.1675) scale(19.8833)">
<stop stop-color="#FFD794"/>
<stop offset="1" stop-color="#ED5A37"/>
</radialGradient>
<radialGradient id="paint1_radial_1511_4319" cx="0" cy="0" r="1" gradientUnits="userSpaceOnUse" gradientTransform="translate(7.84 5.74) rotate(54.1675) scale(19.8833)">
<stop stop-color="#FFD794"/>
<stop offset="1" stop-color="#ED5A37"/>
</radialGradient>
<linearGradient id="paint2_linear_1511_4319" x1="3.35985" y1="6.12012" x2="3.35985" y2="18.2401" gradientUnits="userSpaceOnUse">
<stop stop-color="#FFE090"/>
<stop offset="1" stop-color="#FFE090" stop-opacity="0"/>
</linearGradient>
<linearGradient id="paint3_linear_1511_4319" x1="7.91993" y1="7.7998" x2="7.91993" y2="14.6398" gradientUnits="userSpaceOnUse">
<stop stop-color="#DF3600"/>
<stop offset="1" stop-color="#DF3600" stop-opacity="0"/>
</linearGradient>
<linearGradient id="paint4_linear_1511_4319" x1="2.28003" y1="12.8106" x2="8.56543" y2="12.8106" gradientUnits="userSpaceOnUse">
<stop stop-color="#DF3600"/>
<stop offset="1" stop-color="#DF3600" stop-opacity="0"/>
</linearGradient>
<linearGradient id="paint5_linear_1511_4319" x1="17.1199" y1="-0.480469" x2="17.1199" y2="10.3595" gradientUnits="userSpaceOnUse">
<stop stop-color="#DF3600"/>
<stop offset="1" stop-color="#DF3600" stop-opacity="0"/>
</linearGradient>
<clipPath id="clip0_1511_4319">
<rect width="24" height="24" fill="white"/>
</clipPath>
</defs>
</svg>
