<svg width="24" height="24" viewBox="0 0 24 24" fill="none" xmlns="http://www.w3.org/2000/svg">
<path d="M21.5301 7.5299C21.3841 7.6759 21.192 7.74987 21 7.74987C20.808 7.74987 20.616 7.6769 20.47 7.5299L17.75 4.80993V16.9999C17.75 17.4139 17.414 17.7499 17 17.7499C16.586 17.7499 16.25 17.4139 16.25 16.9999V4.81091L13.5301 7.53088C13.2371 7.82388 12.762 7.82388 12.469 7.53088C12.176 7.23788 12.176 6.76284 12.469 6.46984L16.469 2.46984C16.538 2.40084 16.6209 2.34598 16.7129 2.30798C16.8959 2.23198 17.1029 2.23198 17.2859 2.30798C17.3779 2.34598 17.4611 2.40084 17.5301 2.46984L21.5301 6.46984C21.8231 6.76284 21.8231 7.2369 21.5301 7.5299ZM10.47 16.4698L7.75002 19.1898V6.99987C7.75002 6.58587 7.41402 6.24987 7.00002 6.24987C6.58602 6.24987 6.25002 6.58587 6.25002 6.99987V19.1888L3.53005 16.4689C3.23705 16.1759 2.76202 16.1759 2.46902 16.4689C2.17602 16.7619 2.17602 17.2369 2.46902 17.5299L6.46902 21.5299C6.53802 21.5989 6.62094 21.6538 6.71194 21.6918C6.80294 21.7298 6.90105 21.7499 6.99905 21.7499C7.09705 21.7499 7.19391 21.7298 7.28591 21.6918C7.37791 21.6538 7.46008 21.5989 7.52908 21.5299L11.5291 17.5299C11.8221 17.2369 11.8221 16.7619 11.5291 16.4689C11.2361 16.1759 10.763 16.1768 10.47 16.4698Z" fill="white" stroke="white" stroke-width="0.7"/>
</svg>
