<svg width="14" height="18" viewBox="0 0 14 18" fill="none" xmlns="http://www.w3.org/2000/svg">
	<path fillRule="evenodd" clipRule="evenodd" d="M8.17225 1.41531C8.82649 1.41531 9.44016 1.50301 10.0084 1.66567C9.45211 0.36919 8.29709 0 7.01167 0C5.72374 0 4.56673 0.370641 4.01172 1.67331C4.57573 1.50493 5.18677 1.41531 5.83877 1.41531H8.17225ZM5.68912 2.71692C2.58252 2.71692 0.8125 5.16086 0.8125 8.1756V11.2725C0.8125 11.574 1.06434 11.8125 1.375 11.8125H12.625C12.9356 11.8125 13.1875 11.574 13.1875 11.2725V8.1756C13.1875 5.16086 11.1292 2.71692 8.02259 2.71692H5.68912ZM6.9956 8.20241C8.08289 8.20241 8.96438 7.32092 8.96438 6.23364C8.96438 5.14634 8.08289 4.26489 6.9956 4.26489C5.90829 4.26489 5.02685 5.14634 5.02685 6.23364C5.02685 7.32092 5.90829 8.20241 6.9956 8.20241ZM0.8125 13.6328C0.8125 13.3313 1.06434 13.0869 1.375 13.0869H12.625C12.9356 13.0869 13.1875 13.3313 13.1875 13.6328V16.908C13.1875 17.5109 12.6838 17.9997 12.0625 17.9997H1.9375C1.31618 17.9997 0.8125 17.5109 0.8125 16.908V13.6328Z" fill="#E33E3F" />
</svg>
