<svg width="16" height="17" viewBox="0 0 16 17" fill="none" xmlns="http://www.w3.org/2000/svg">
	<path d="M6 11.638H10M11.3333 14.3046H4.66667C3.95942 14.3046 3.28115 14.0237 2.78105 13.5236C2.28095 13.0235 2 12.3452 2 11.638V7.44331C1.99999 6.98479 2.11821 6.53401 2.34325 6.13451C2.56828 5.73501 2.89252 5.40028 3.28467 5.16265L6.618 3.14265C7.03474 2.89011 7.51271 2.75659 8 2.75659C8.48729 2.75659 8.96526 2.89011 9.382 3.14265L12.7153 5.16265C13.1074 5.40022 13.4316 5.73484 13.6566 6.13422C13.8816 6.53359 13.9999 6.98424 14 7.44265V11.638C14 12.3452 13.719 13.0235 13.219 13.5236C12.7189 14.0237 12.0406 14.3046 11.3333 14.3046Z" stroke="currentColor" stroke-linecap="round" stroke-linejoin="round" />
</svg>
