<svg width="21" height="20" viewBox="0 0 21 20" fill="none" xmlns="http://www.w3.org/2000/svg">
<path d="M15.6455 5.20833H8.35384C6.53967 5.20833 5.54134 6.20667 5.54134 8.02083V15.3125C5.54134 17.1267 6.53967 18.125 8.35384 18.125H15.6455C17.4597 18.125 18.458 17.1267 18.458 15.3125V8.02083C18.458 6.20667 17.4597 5.20833 15.6455 5.20833ZM17.208 15.3125C17.208 16.4225 16.7555 16.875 15.6455 16.875H8.35384C7.24384 16.875 6.79134 16.4225 6.79134 15.3125V8.02083C6.79134 6.91083 7.24384 6.45833 8.35384 6.45833H15.6455C16.7555 6.45833 17.208 6.91083 17.208 8.02083V15.3125ZM3.45801 4.68333V11.9833C3.45801 12.9817 3.86058 13.2275 3.99308 13.3092C4.28808 13.4892 4.37959 13.8742 4.19958 14.1683C4.08125 14.3608 3.87636 14.4667 3.66553 14.4667C3.55469 14.4667 3.44127 14.4367 3.3396 14.375C2.58877 13.915 2.20801 13.1108 2.20801 11.9833V4.68333C2.20801 2.89833 3.23227 1.875 5.01644 1.875H12.3162C13.7204 1.875 14.3913 2.49081 14.708 3.00664C14.888 3.30081 14.7955 3.68581 14.5013 3.86581C14.2063 4.04665 13.823 3.95333 13.6421 3.65916C13.5613 3.52666 13.3146 3.12419 12.3162 3.12419H5.01644C3.90977 3.12502 3.45801 3.57666 3.45801 4.68333Z" fill="#3182FF"/>
</svg>
