<svg width="16" height="16" viewBox="0 0 16 16" fill="none" xmlns="http://www.w3.org/2000/svg">
    <path
        d="M11.25 2.87012L10.75 3.73512C11.7985 4.34049 12.618 5.27492 13.0813 6.3935C13.5447 7.51207 13.626 8.75228 13.3126 9.92176C12.9992 11.0912 12.3087 12.1246 11.3482 12.8617C10.3876 13.5988 9.21074 13.9983 8 13.9983C6.78926 13.9983 5.61236 13.5988 4.65181 12.8617C3.69127 12.1246 3.00077 11.0912 2.68741 9.92176C2.37405 8.75228 2.45534 7.51207 2.91866 6.3935C3.38199 5.27492 4.20147 4.34049 5.25 3.73512L4.75 2.87012C3.51083 3.58555 2.54236 4.68989 1.99479 6.01184C1.44721 7.33379 1.35115 8.79949 1.72148 10.1816C2.09182 11.5637 2.90787 12.785 4.04305 13.6561C5.17824 14.5271 6.56913 14.9993 8 14.9993C9.43087 14.9993 10.8218 14.5271 11.957 13.6561C13.0921 12.785 13.9082 11.5637 14.2785 10.1816C14.6489 8.79949 14.5528 7.33379 14.0052 6.01184C13.4576 4.68989 12.4892 3.58555 11.25 2.87012Z"
        fill="#8BA6CF" />
    <path d="M7.5 1H8.5V8H7.5V1Z" fill="#8BA6CF" />
</svg>