<svg width="16" height="17" viewBox="0 0 16 17" fill="none" xmlns="http://www.w3.org/2000/svg">
    <path
        d="M12.8538 4.15717L3.85377 13.1572C3.75995 13.251 3.63271 13.3037 3.50002 13.3037C3.36734 13.3037 3.24009 13.251 3.14627 13.1572C3.05245 13.0634 2.99975 12.9361 2.99975 12.8034C2.99975 12.6707 3.05245 12.5435 3.14627 12.4497L12.1463 3.44967C12.24 3.35585 12.3672 3.30311 12.4998 3.30305C12.6324 3.30299 12.7596 3.35562 12.8535 3.44936C12.9473 3.5431 13 3.67027 13.0001 3.80289C13.0001 3.93551 12.9475 4.06273 12.8538 4.15655V4.15717ZM3.15877 6.64467C2.73683 6.22265 2.49982 5.65029 2.49988 5.05351C2.49994 4.45674 2.73706 3.88443 3.15909 3.46249C3.58111 3.04054 4.15347 2.80353 4.75025 2.80359C5.34702 2.80365 5.91933 3.04077 6.34127 3.4628C6.76322 3.88482 7.00023 4.45718 7.00017 5.05396C7.00011 5.65073 6.76299 6.22304 6.34096 6.64499C5.91894 7.06693 5.34658 7.30394 4.7498 7.30388C4.15303 7.30382 3.58072 7.0667 3.15877 6.64467ZM3.50002 5.05467C3.50019 5.2602 3.55102 5.46252 3.64804 5.64371C3.74505 5.82491 3.88525 5.97938 4.05621 6.09346C4.22718 6.20754 4.42363 6.2777 4.62818 6.29774C4.83274 6.31777 5.03907 6.28706 5.22892 6.20831C5.41877 6.12957 5.58627 6.00523 5.7166 5.8463C5.84692 5.68738 5.93605 5.49877 5.97608 5.29717C6.01612 5.09558 6.00582 4.88722 5.94612 4.69056C5.88641 4.49389 5.77913 4.31498 5.63377 4.16967C5.45888 3.99484 5.23606 3.8758 4.99351 3.82763C4.75095 3.77946 4.49955 3.80432 4.27113 3.89906C4.0427 3.99381 3.84751 4.15418 3.71025 4.35988C3.57299 4.56558 3.49983 4.80738 3.50002 5.05467ZM13.5 11.5547C13.4999 12.0752 13.3193 12.5796 12.989 12.9819C12.6587 13.3842 12.1991 13.6596 11.6885 13.761C11.1779 13.8625 10.648 13.7837 10.189 13.5383C9.72995 13.2928 9.37023 12.8957 9.17113 12.4148C8.97202 11.9338 8.94583 11.3987 9.09703 10.9006C9.24823 10.4025 9.56746 9.97224 10.0003 9.68312C10.4332 9.394 10.9529 9.26391 11.4709 9.31503C11.989 9.36614 12.4733 9.59528 12.8413 9.96342C13.0509 10.1719 13.217 10.4199 13.3301 10.693C13.4432 10.9662 13.5009 11.2591 13.5 11.5547ZM12.5 11.5547C12.5001 11.2655 12.3999 10.9852 12.2165 10.7616C12.033 10.538 11.7778 10.3849 11.4941 10.3285C11.2105 10.272 10.9161 10.3156 10.661 10.4519C10.4059 10.5882 10.206 10.8087 10.0953 11.0758C9.98454 11.343 9.96988 11.6403 10.0538 11.9171C10.1377 12.1938 10.315 12.4329 10.5554 12.5936C10.7958 12.7543 11.0845 12.8267 11.3723 12.7984C11.6602 12.7701 11.9293 12.6429 12.1338 12.4384C12.2502 12.3226 12.3425 12.1849 12.4054 12.0332C12.4683 11.8815 12.5004 11.7189 12.5 11.5547Z"
        fill="#8BA6CF" />
</svg>