<svg width="96" height="100" viewBox="0 0 96 100" fill="none" xmlns="http://www.w3.org/2000/svg">
    <path
        d="M47.0818 12.4707C68.4969 12.4707 85.9309 29.9047 85.9309 51.3198C85.9309 72.7349 68.5158 90.1688 47.0818 90.1688C25.6478 90.1688 8.21387 72.7349 8.21387 51.3198C8.23274 29.9047 25.6478 12.4707 47.0818 12.4707Z"
        fill="#F4F6FB" />
    <path
        d="M74.7598 15.4141C75.6089 14.8669 76.741 15.131 77.2881 15.9801C77.8353 16.8291 77.59 17.9612 76.7221 18.5084C75.873 19.0556 74.7221 18.8103 74.1938 17.9612C73.6655 17.1122 73.9108 15.9612 74.7598 15.4141Z"
        fill="#EDEEF0" />
    <path
        d="M70.8175 13.2449C71.3646 12.9053 72.0816 13.0562 72.4212 13.6034C72.7609 14.1506 72.6099 14.8676 72.0628 15.2072C71.5156 15.5468 70.7986 15.3959 70.4401 14.8487C70.1194 14.3204 70.2703 13.6034 70.8175 13.2449Z"
        fill="#EDEEF0" />
    <path
        d="M75.61 85.4521C76.459 84.905 77.5911 85.1691 78.1383 86.0182C78.6854 86.8672 78.4402 87.9993 77.5722 88.5465C76.7232 89.0937 75.5722 88.8484 75.0439 87.9993C74.4968 87.1503 74.7609 85.9993 75.61 85.4521Z"
        fill="#EDEEF0" />
    <path
        d="M12.5157 82.9801C13.2327 82.5272 14.195 82.7348 14.6478 83.4518C15.1006 84.1688 14.8931 85.1121 14.1761 85.565C13.4591 86.0178 12.4969 85.8103 12.044 85.1121C11.5912 84.3952 11.7988 83.4329 12.5157 82.9801Z"
        fill="#EDEEF0" />
    <path
        d="M88.5518 45.4905L86.25 51.3773L74.25 82.0377L62.1934 77.3585L74.1368 46.9245L76.5519 40.7924C79.816 32.4151 91.8349 37.0943 88.5518 45.4905Z"
        fill="#D7DDE8" />
    <path
        d="M88.5538 45.4907L86.2519 51.3775C82.6858 48.302 78.6481 46.7737 74.1387 46.9435L76.5538 40.8114C79.8179 32.4152 91.8368 37.0945 88.5538 45.4907Z"
        fill="#F4F4F4" />
    <path
        d="M87.0429 49.3584L88.5523 45.4905C91.8353 37.0943 79.8165 32.4151 76.5523 40.7924L74.9297 44.9056C79.5335 44.4717 83.5523 46.0188 87.0429 49.3584Z"
        fill="url(#paint0_linear_81_8246)" />
    <path
        d="M74.2502 82.0377C73.9671 82.7924 73.5143 83.4528 72.9483 84.0377L69.0426 87.9433L64.1747 92.8301C63.5143 93.4905 62.3634 93.0565 62.3256 92.1131L62.0237 85.2264L61.7973 79.7169C61.7596 78.9056 61.8917 78.1132 62.1747 77.3584C63.5332 73.849 75.6087 78.5471 74.2502 82.0377Z"
        fill="#F4F4F4" />
    <path d="M62.1934 77.3594L62.1367 77.4916C62.1367 77.4538 62.1556 77.416 62.1934 77.3594Z"
        fill="url(#paint1_linear_81_8246)" />
    <path
        d="M69.043 87.9431L64.175 92.8299C63.5147 93.4903 62.3637 93.0563 62.326 92.1129L62.043 85.2261C63.3071 84.9243 64.6656 84.9809 65.9675 85.4903C67.2694 85.9997 68.326 86.8865 69.043 87.9431Z"
        fill="url(#paint2_linear_81_8246)" />
    <g opacity="0.4">
        <path
            d="M57.0617 93.4152H52.8353C52.2692 93.4152 51.8164 92.9623 51.8164 92.3963C51.8164 91.8303 52.2692 91.3774 52.8353 91.3774H57.0617C57.6277 91.3774 58.0806 91.8303 58.0806 92.3963C58.0806 92.9623 57.6089 93.4152 57.0617 93.4152Z"
            fill="#B5C4DB" />
    </g>
    <path opacity="0.4"
        d="M45.6659 93.4144H34.0433C31.0999 93.4144 28.7225 91.0182 28.7225 88.0937C28.7225 85.1503 31.1188 82.7729 34.0433 82.7729H47.4206C49.2131 82.7729 50.6659 81.3201 50.6659 79.5276C50.6659 77.7352 49.2131 76.2824 47.4206 76.2824H22.0433C21.4772 76.2824 21.0244 75.8295 21.0244 75.2635C21.0244 74.6975 21.4772 74.2446 22.0433 74.2446H47.4206C50.3263 74.2446 52.6848 76.6031 52.6848 79.5088C52.6848 82.4144 50.3263 84.7729 47.4206 84.7729H34.0433C32.2131 84.7729 30.7414 86.2635 30.7414 88.0748C30.7414 89.905 32.232 91.3767 34.0433 91.3767H45.6659C46.232 91.3767 46.6848 91.8295 46.6848 92.3956C46.6848 92.9616 46.2131 93.4144 45.6659 93.4144Z"
        fill="#B5C4DB" />
    <path opacity="0.4"
        d="M15.9662 76.2829H13.0228C12.4567 76.2829 12.0039 75.83 12.0039 75.264C12.0039 74.698 12.4567 74.2451 13.0228 74.2451H15.985C16.5511 74.2451 17.0039 74.698 17.0039 75.264C17.0039 75.83 16.5322 76.2829 15.9662 76.2829Z"
        fill="#B5C4DB" />
    <path
        d="M53.8729 14.2262L65.7975 49.8111C66.7597 52.7167 65.2126 55.8488 62.3069 56.8111L26.7031 68.7545C23.7975 69.7167 20.6654 68.1696 19.7031 65.2639L7.7786 29.6601C6.81634 26.7545 8.36351 23.6224 11.2692 22.6601L46.8729 10.7356C49.7597 9.75445 52.9107 11.3205 53.8729 14.2262Z"
        fill="url(#paint3_linear_81_8246)" />
    <path
        d="M17.2694 17.1886L19.3449 23.3962C19.7411 24.6037 19.0996 25.8867 17.8921 26.3018C16.6845 26.6981 15.4015 26.0566 14.9864 24.849L12.9109 18.6415C12.5147 17.4339 13.1562 16.1509 14.3638 15.7358C15.5713 15.3396 16.8732 15.9999 17.2694 17.1886Z"
        fill="#E5EBF4" />
    <path
        d="M25.8915 14.3019L27.967 20.5095C28.3632 21.717 27.7217 23 26.5141 23.4151C25.3066 23.8113 24.0236 23.1698 23.6085 21.9623L21.533 15.7547C21.1368 14.5472 21.7783 13.2642 22.9858 12.8491C24.1934 12.4529 25.4953 13.1132 25.8915 14.3019Z"
        fill="#E5EBF4" />
    <path
        d="M34.5155 11.4147L36.591 17.6223C36.9872 18.8298 36.3457 20.1128 35.1382 20.5279C33.9306 20.9241 32.6476 20.2826 32.2325 19.0751L30.157 12.8675C29.7608 11.66 30.4023 10.377 31.6098 9.96187C32.8174 9.56564 34.1004 10.226 34.5155 11.4147Z"
        fill="#E5EBF4" />
    <path
        d="M43.7602 17.6412C43.5149 17.7166 43.2697 17.7544 43.0244 17.7544C42.0621 17.7544 41.1753 17.1506 40.8546 16.1883L38.7791 9.98078C38.3829 8.7921 39.0244 7.49021 40.2319 7.07512C40.4772 6.99965 40.7225 6.96191 40.9678 6.96191C41.93 6.96191 42.8168 7.56569 43.1376 8.52795L45.2131 14.7355C45.6093 15.943 44.9678 17.2261 43.7602 17.6412Z"
        fill="#E5EBF4" />
    <path opacity="0.5"
        d="M37.0622 54.1132C44.2002 54.1132 49.9868 48.3267 49.9868 41.1887C49.9868 34.0507 44.2002 28.2642 37.0622 28.2642C29.9242 28.2642 24.1377 34.0507 24.1377 41.1887C24.1377 48.3267 29.9242 54.1132 37.0622 54.1132Z"
        fill="white" />
    <path
        d="M42.6847 46.7926C41.93 47.5474 40.7413 47.5474 39.9866 46.7926L37.3451 44.1511L34.7036 46.7926C33.9489 47.5474 32.7602 47.5474 32.0055 46.7926C31.2508 46.0379 31.2508 44.8304 32.0055 44.0945L34.647 41.453L32.0055 38.8115C31.2508 38.0568 31.2508 36.8493 32.0055 36.1134C32.7413 35.3776 33.9678 35.3587 34.7036 36.1134L37.3451 38.7549L39.9866 36.1134C40.7413 35.3587 41.9489 35.3587 42.6847 36.1134C43.4395 36.8681 43.4206 38.0757 42.6847 38.8115L40.0432 41.453L42.6847 44.0945C43.4395 44.8304 43.4395 46.0379 42.6847 46.7926Z"
        fill="#CDD4DF" />
    <path
        d="M16.0421 86.1697C16.5893 85.8301 17.3062 85.981 17.6459 86.5282C17.9855 87.0754 17.8345 87.7924 17.2874 88.132C16.7402 88.4716 16.0232 88.3207 15.6647 87.7735C15.344 87.2452 15.4949 86.5093 16.0421 86.1697Z"
        fill="#EAEEF9" />
    <defs>
        <linearGradient id="paint0_linear_81_8246" x1="80.0622" y1="57.4911" x2="80.0622" y2="36.3828"
            gradientUnits="userSpaceOnUse">
            <stop stop-color="#BDC9DC" />
            <stop offset="1" stop-color="#D5DDEA" />
        </linearGradient>
        <linearGradient id="paint1_linear_81_8246" x1="62.1259" y1="77.4279" x2="62.1863" y2="77.4282"
            gradientUnits="userSpaceOnUse">
            <stop offset="1.1e-07" stop-color="#D6DCE8" />
            <stop offset="1" stop-color="#F1F3F9" />
        </linearGradient>
        <linearGradient id="paint2_linear_81_8246" x1="64.5757" y1="98.2273" x2="64.5757" y2="85.042"
            gradientUnits="userSpaceOnUse">
            <stop stop-color="#BDC9DC" />
            <stop offset="1" stop-color="#D5DDEA" />
        </linearGradient>
        <linearGradient id="paint3_linear_81_8246" x1="28.6924" y1="105.767" x2="28.6924" y2="10.4429"
            gradientUnits="userSpaceOnUse">
            <stop stop-color="#C8D2E1" />
            <stop offset="1" stop-color="#DAE0E9" />
        </linearGradient>
    </defs>
</svg>