<svg width="16" height="16" viewBox="0 0 16 16" fill="none" xmlns="http://www.w3.org/2000/svg">
    <path
        d="M11.1361 3.076C9.55893 3.88816 7.85423 4.42392 6.09605 4.66C5.41125 4.75333 4.71259 4.8 4.00005 4.8C3.18536 4.79857 2.40079 5.10793 1.80632 5.66501C1.21185 6.22209 0.852242 6.98494 0.800819 7.79801C0.749396 8.61108 1.01003 9.41316 1.52958 10.0407C2.04913 10.6682 2.78847 11.074 3.59685 11.1752C3.83494 12.101 4.176 12.9973 4.61365 13.8472C4.93125 14.464 5.68725 14.6472 6.25365 14.3192L6.94725 13.9192C7.52805 13.584 7.69925 12.8632 7.41765 12.3032C7.28485 12.0381 7.16539 11.7704 7.05925 11.5C8.49925 11.7856 9.86805 12.2704 11.1361 12.924C11.7089 11.3456 12.0013 9.67915 12.0001 8C12.0001 6.2704 11.6953 4.612 11.1361 3.076ZM12.1945 2.4776C12.8608 4.24245 13.2015 6.11354 13.2001 8C13.2001 9.944 12.8441 11.8064 12.1945 13.5232L12.1705 13.5848C12.1422 13.6584 12.1288 13.7368 12.1309 13.8156C12.133 13.8944 12.1506 13.972 12.1827 14.044C12.2475 14.1893 12.3674 14.303 12.5161 14.36C12.6647 14.417 12.8299 14.4126 12.9752 14.3477C13.0472 14.3157 13.1122 14.2697 13.1664 14.2125C13.2206 14.1553 13.263 14.088 13.2913 14.0144C13.3601 13.8347 13.4259 13.6533 13.4889 13.4704C13.9388 12.16 14.225 10.799 14.3409 9.4184C14.6001 9.28309 14.8173 9.07934 14.9688 8.82928C15.1204 8.57921 15.2005 8.2924 15.2005 8C15.2005 7.70759 15.1204 7.42078 14.9688 7.17071C14.8173 6.92065 14.6001 6.7169 14.3409 6.5816C14.2087 5.00788 13.8554 3.46065 13.2913 1.9856C13.2314 1.84119 13.1175 1.72587 12.9738 1.66418C12.8302 1.60248 12.6681 1.59929 12.5222 1.65528C12.3762 1.71126 12.2579 1.82201 12.1923 1.96394C12.1268 2.10587 12.1192 2.26778 12.1713 2.4152L12.1945 2.4776Z"
        fill="#020B20" />
</svg>