<svg width="20" height="20" viewBox="0 0 20 20" fill="none" xmlns="http://www.w3.org/2000/svg">
    <g clip-path="url(#clip0_435_3207)">
        <path
            d="M6.51402 9.74941C6.64405 7.92898 8.16108 6.48935 10.0156 6.48935C11.8701 6.48935 13.3871 7.92898 13.5171 9.74941H16.031C15.8979 6.53889 13.2571 3.97852 10.0125 3.97852C6.76789 3.97852 4.12702 6.53889 3.9939 9.74941H6.51402Z"
            fill="currentColor" />
        <path
            d="M13.5139 10.3096C13.3591 12.1052 11.8514 13.5139 10.0155 13.5139C8.17957 13.5139 6.67183 12.1052 6.51703 10.3096H4C4.15789 13.4922 6.79257 16.0247 10.0155 16.0247C13.2384 16.0247 15.87 13.4922 16.031 10.3096H13.5139Z"
            fill="currentColor" />
        <path
            d="M10.0217 19.9965C9.904 19.9965 9.78326 19.9934 9.66252 19.9903C9.56964 19.9872 9.47676 19.981 9.38388 19.9779C9.26933 19.9718 9.17955 19.8696 9.18883 19.755C9.19503 19.6405 9.2941 19.5507 9.41174 19.56C9.50153 19.5662 9.58821 19.5693 9.678 19.5724C9.79255 19.5755 9.9071 19.5786 10.0217 19.5786H10.0898C10.2043 19.5786 10.3003 19.6714 10.3003 19.786C10.3003 19.9005 10.2074 19.9965 10.0929 19.9965H10.0217ZM11.0557 19.9408C10.9504 19.9408 10.8576 19.8603 10.8483 19.7519C10.8359 19.6374 10.9195 19.5321 11.034 19.5228C11.2569 19.4981 11.483 19.4671 11.7059 19.4269C11.8204 19.4052 11.9288 19.4826 11.9504 19.5971C11.9721 19.7117 11.8947 19.8201 11.7802 19.8417C11.548 19.882 11.3127 19.916 11.0805 19.9408C11.0712 19.9408 11.065 19.9408 11.0557 19.9408ZM8.43651 19.8665C8.42413 19.8665 8.41484 19.8665 8.40246 19.8634C8.17026 19.8262 7.93806 19.7798 7.70896 19.7241C7.5975 19.6962 7.52629 19.5848 7.55416 19.4733C7.58202 19.3618 7.69348 19.2906 7.80803 19.3185C8.02475 19.3711 8.25075 19.4145 8.47057 19.4516C8.58512 19.4702 8.66252 19.5786 8.64394 19.6931C8.62537 19.7953 8.53558 19.8665 8.43651 19.8665ZM12.6842 19.625C12.5913 19.625 12.5077 19.5662 12.483 19.4733C12.452 19.3618 12.517 19.2473 12.6285 19.2132C12.8452 19.1513 13.0619 19.0832 13.2724 19.0058C13.3808 18.9656 13.5015 19.0213 13.5418 19.1327C13.582 19.2411 13.5263 19.3618 13.4148 19.4021C13.195 19.4826 12.969 19.5538 12.743 19.6188C12.7244 19.625 12.7028 19.625 12.6842 19.625ZM6.8266 19.464C6.80493 19.464 6.78016 19.4609 6.75849 19.4516C6.53558 19.3742 6.31267 19.2906 6.09905 19.1978C5.99379 19.1513 5.94425 19.0306 5.98759 18.9222C6.03403 18.817 6.15478 18.7674 6.26314 18.8108C6.47057 18.8975 6.68419 18.981 6.89472 19.0553C7.00308 19.0925 7.0619 19.2132 7.02475 19.3216C6.99379 19.4083 6.91329 19.464 6.8266 19.464ZM14.2384 19.0399C14.161 19.0399 14.0867 18.9965 14.0495 18.9222C14 18.817 14.0433 18.6931 14.1486 18.6436C14.3498 18.5476 14.5511 18.4423 14.7492 18.3309C14.8514 18.2721 14.9783 18.3092 15.034 18.4083C15.0929 18.5074 15.0557 18.6374 14.9566 18.6931C14.7523 18.8108 14.5418 18.9191 14.3312 19.0213C14.2972 19.0337 14.2662 19.0399 14.2384 19.0399ZM5.30958 18.7922C5.27552 18.7922 5.24147 18.7829 5.20741 18.7674C4.99998 18.6529 4.79564 18.5321 4.6006 18.4052C4.50462 18.3433 4.47676 18.2132 4.53868 18.1142C4.6006 18.0182 4.73063 17.9903 4.8297 18.0522C5.01855 18.173 5.2136 18.2906 5.41174 18.399C5.51391 18.4547 5.55106 18.5817 5.49533 18.6838C5.45509 18.7519 5.38388 18.7922 5.30958 18.7922ZM15.6656 18.1978C15.6006 18.1978 15.5356 18.1668 15.4953 18.108C15.4272 18.012 15.452 17.882 15.5449 17.817C15.7275 17.6869 15.9102 17.5476 16.0836 17.4052C16.1734 17.3309 16.3065 17.3464 16.3777 17.4331C16.452 17.5228 16.4396 17.656 16.3498 17.7272C16.1672 17.8758 15.9783 18.0213 15.7895 18.1544C15.7523 18.1854 15.709 18.1978 15.6656 18.1978ZM3.92567 17.8727C3.87924 17.8727 3.8328 17.8572 3.79564 17.8262C3.61298 17.6807 3.43032 17.5259 3.25695 17.368C3.17026 17.2906 3.16716 17.1575 3.24456 17.0708C3.32196 16.9841 3.45509 16.981 3.54177 17.0584C3.70896 17.2101 3.88233 17.3588 4.05571 17.4981C4.14549 17.5693 4.16097 17.7024 4.08976 17.7922C4.04951 17.8448 3.98759 17.8727 3.92567 17.8727ZM16.935 17.1266C16.8823 17.1266 16.8266 17.1049 16.7864 17.0646C16.7059 16.9841 16.7059 16.851 16.7864 16.7674C16.9443 16.6095 17.1021 16.4423 17.2477 16.2721C17.3251 16.1854 17.4551 16.1761 17.5449 16.2504C17.6316 16.3278 17.6408 16.4578 17.5665 16.5476C17.4117 16.7241 17.2508 16.8975 17.0836 17.0646C17.0433 17.108 16.9876 17.1266 16.935 17.1266ZM2.72134 16.7334C2.66252 16.7334 2.60679 16.7086 2.56345 16.6622C2.40555 16.4857 2.25385 16.303 2.11143 16.1204C2.04023 16.0275 2.05571 15.8975 2.14859 15.8262C2.24146 15.755 2.3715 15.7705 2.4427 15.8634C2.57893 16.0399 2.72753 16.2163 2.87614 16.3835C2.95354 16.4702 2.94735 16.6033 2.86066 16.6807C2.82041 16.7148 2.77088 16.7334 2.72134 16.7334ZM18.0031 15.8603C17.9597 15.8603 17.9195 15.8479 17.8823 15.8231C17.7864 15.755 17.7647 15.625 17.8328 15.5321C17.9628 15.3495 18.0867 15.1575 18.2043 14.9656C18.2631 14.8665 18.3932 14.8355 18.4922 14.8944C18.5913 14.9532 18.6223 15.0832 18.5634 15.1823C18.4427 15.3835 18.3096 15.5817 18.1765 15.7736C18.1362 15.8293 18.0712 15.8603 18.0031 15.8603ZM1.72444 15.4052C1.65323 15.4052 1.58512 15.3711 1.54797 15.3061C1.42413 15.108 1.30338 14.9005 1.19503 14.6962C1.1393 14.594 1.17955 14.4671 1.28171 14.4114C1.38388 14.3557 1.51081 14.3959 1.56654 14.4981C1.67181 14.6962 1.78636 14.8944 1.9071 15.0832C1.96902 15.1823 1.93806 15.3092 1.84208 15.3711C1.79874 15.3959 1.76159 15.4052 1.72444 15.4052ZM18.8452 14.43C18.8142 14.43 18.7833 14.4238 18.7554 14.4083C18.6501 14.3588 18.6068 14.2318 18.6563 14.1297C18.7523 13.9253 18.8452 13.7179 18.9257 13.5074C18.969 13.399 19.0898 13.3464 19.1981 13.3897C19.3065 13.4331 19.3591 13.5538 19.3158 13.6622C19.2291 13.882 19.1331 14.0987 19.034 14.3123C19 14.3866 18.9226 14.43 18.8452 14.43ZM0.962827 13.9315C0.879236 13.9315 0.801836 13.882 0.76778 13.8015C0.677997 13.5848 0.594406 13.3618 0.523198 13.1389C0.486047 13.0275 0.547967 12.9098 0.656326 12.8727C0.767781 12.8355 0.885427 12.8975 0.922579 13.0058C0.993786 13.2194 1.07119 13.4331 1.15787 13.6405C1.20122 13.7488 1.15168 13.8696 1.04332 13.9129C1.01855 13.9253 0.990691 13.9315 0.962827 13.9315ZM19.4303 12.8758C19.4117 12.8758 19.3932 12.8727 19.3746 12.8665C19.2631 12.8355 19.1981 12.7179 19.2291 12.6064C19.291 12.3897 19.3436 12.1699 19.3901 11.9501C19.4148 11.8355 19.5232 11.7643 19.6378 11.786C19.7523 11.8108 19.8235 11.9191 19.8018 12.0337C19.7554 12.2628 19.6966 12.495 19.6347 12.721C19.6068 12.817 19.5232 12.8758 19.4303 12.8758ZM0.464375 12.3495C0.3684 12.3495 0.281712 12.2844 0.26004 12.1854C0.207409 11.9563 0.164065 11.721 0.13001 11.4919C0.111434 11.3773 0.191929 11.2721 0.30648 11.2535C0.421031 11.2349 0.526295 11.3154 0.54487 11.43C0.578926 11.6529 0.619174 11.8758 0.66871 12.0956C0.693477 12.2101 0.62227 12.3216 0.510815 12.3464C0.495335 12.3495 0.479855 12.3495 0.464375 12.3495ZM19.743 11.2473C19.7368 11.2473 19.7275 11.2473 19.7213 11.2473C19.6068 11.2349 19.5232 11.1327 19.5356 11.0182C19.5604 10.7953 19.5758 10.5693 19.582 10.3433V10.3247C19.5851 10.2101 19.6873 10.1173 19.7987 10.1204C19.9133 10.1235 20.0062 10.2194 20.0031 10.3371V10.3588C19.9938 10.594 19.9783 10.8293 19.9535 11.0615C19.9412 11.1668 19.8514 11.2473 19.743 11.2473ZM0.241464 10.7055C0.130009 10.7055 0.0371304 10.6188 0.0309384 10.5074C0.0216505 10.3433 0.0185547 10.1761 0.0185547 10.0089C0.0185547 9.94079 0.0185544 9.86959 0.0216504 9.80148C0.0247464 9.68692 0.120722 9.59405 0.235273 9.59714C0.349824 9.60024 0.442703 9.69621 0.439608 9.81077C0.439608 9.87578 0.436511 9.94389 0.436511 10.0089C0.436511 10.1699 0.439607 10.3309 0.448895 10.4888C0.455087 10.6033 0.365304 10.7024 0.250753 10.7086C0.250753 10.7055 0.247656 10.7055 0.241464 10.7055ZM19.7771 9.56618C19.6687 9.56618 19.5758 9.4795 19.5665 9.37114C19.5511 9.14513 19.5294 8.91912 19.4984 8.69621C19.483 8.58166 19.5634 8.4764 19.678 8.46092C19.7925 8.44544 19.8978 8.52593 19.9133 8.64048C19.9443 8.87268 19.969 9.10798 19.9845 9.34327C19.9907 9.45782 19.904 9.55999 19.7895 9.56618C19.7864 9.56618 19.7833 9.56618 19.7771 9.56618ZM0.300289 9.04915C0.291001 9.04915 0.284808 9.04915 0.27552 9.04915C0.160969 9.03677 0.077378 8.93151 0.0928579 8.81696C0.120722 8.58476 0.157873 8.34946 0.201217 8.11727C0.222889 8.00272 0.334344 7.92841 0.445799 7.95008C0.56035 7.97175 0.634653 8.08011 0.612981 8.19467C0.569638 8.41448 0.535582 8.64048 0.510815 8.8634C0.495335 8.96866 0.405552 9.04915 0.300289 9.04915ZM19.5294 7.92841C19.4334 7.92841 19.3498 7.8634 19.3251 7.76742C19.2724 7.54761 19.2105 7.33089 19.1455 7.11417C19.1114 7.00271 19.1703 6.88507 19.2817 6.85101C19.3932 6.81696 19.5108 6.87578 19.5449 6.98724C19.6161 7.21015 19.678 7.43925 19.7337 7.66835C19.7616 7.77981 19.6904 7.89436 19.5789 7.92222C19.5634 7.92532 19.548 7.92841 19.5294 7.92841ZM0.634654 7.42377C0.616078 7.42377 0.594406 7.42067 0.57583 7.41448C0.464375 7.38042 0.402455 7.26587 0.433415 7.15442C0.501527 6.92841 0.57583 6.7055 0.659421 6.48569C0.699669 6.37733 0.820412 6.3216 0.928771 6.36185C1.03713 6.4021 1.09286 6.52284 1.05261 6.6312C0.972115 6.84172 0.900907 7.05844 0.835892 7.27206C0.808028 7.36494 0.724437 7.42377 0.634654 7.42377ZM19.0093 6.35256C18.9288 6.35256 18.8514 6.30612 18.8173 6.22563C18.7275 6.0182 18.6316 5.81386 18.5294 5.61262C18.4768 5.51045 18.517 5.38352 18.6192 5.33089C18.7213 5.27826 18.8483 5.3185 18.9009 5.42067C19.0093 5.6281 19.1114 5.84482 19.2012 6.05844C19.2477 6.16371 19.1981 6.28755 19.0929 6.33398C19.065 6.34637 19.0371 6.35256 19.0093 6.35256ZM1.23837 5.87888C1.20741 5.87888 1.17645 5.87268 1.14549 5.8572C1.04023 5.80457 0.999978 5.68073 1.04951 5.57547C1.15478 5.36494 1.26623 5.15442 1.38698 4.95318C1.4458 4.85411 1.57273 4.82005 1.6749 4.87888C1.77397 4.9377 1.80803 5.06463 1.7492 5.1668C1.63465 5.36185 1.52629 5.56309 1.42722 5.76433C1.39007 5.83553 1.31577 5.87888 1.23837 5.87888ZM18.226 4.89126C18.1579 4.89126 18.0898 4.8572 18.0495 4.79528C17.9257 4.60643 17.7956 4.42067 17.6625 4.24111C17.5913 4.14823 17.6099 4.0182 17.7028 3.94699C17.7956 3.87578 17.9257 3.89436 17.9969 3.98723C18.1393 4.17299 18.2755 4.36804 18.4025 4.56618C18.4644 4.66216 18.4365 4.79219 18.3405 4.8572C18.3034 4.87888 18.2662 4.89126 18.226 4.89126ZM2.09905 4.45782C2.05571 4.45782 2.01236 4.44544 1.97521 4.41758C1.88233 4.34946 1.86066 4.21943 1.92877 4.12346C2.06809 3.9346 2.2136 3.74575 2.3653 3.56618C2.43961 3.4764 2.57273 3.46711 2.65942 3.54141C2.7492 3.61572 2.75849 3.74884 2.68419 3.83553C2.53868 4.00891 2.39936 4.18847 2.26623 4.36804C2.22908 4.42996 2.16407 4.45782 2.09905 4.45782ZM17.2074 3.57857C17.1517 3.57857 17.096 3.55689 17.0526 3.51045C16.9009 3.34637 16.7399 3.18228 16.5758 3.02748C16.4922 2.94699 16.4891 2.81386 16.5665 2.73027C16.647 2.64668 16.7771 2.64049 16.8638 2.72098C17.034 2.88197 17.2012 3.05225 17.3622 3.22253C17.4396 3.30612 17.4365 3.43925 17.3498 3.51974C17.3096 3.56309 17.26 3.57857 17.2074 3.57857ZM3.18574 3.20395C3.13001 3.20395 3.07738 3.18228 3.03403 3.14203C2.95354 3.05844 2.95354 2.92532 3.03713 2.84482C3.20431 2.68073 3.38078 2.52284 3.56035 2.37114C3.65013 2.29683 3.78016 2.30612 3.85447 2.3959C3.92877 2.48569 3.91948 2.61572 3.8297 2.69002C3.65633 2.83553 3.48914 2.98724 3.32815 3.14513C3.291 3.18538 3.23837 3.20395 3.18574 3.20395ZM15.9845 2.45782C15.9412 2.45782 15.8947 2.44234 15.8576 2.41448C15.6811 2.27826 15.4953 2.14513 15.3065 2.02129C15.2105 1.95627 15.1826 1.82624 15.2477 1.73027C15.3127 1.63429 15.4427 1.60643 15.5387 1.67145C15.7337 1.80148 15.9288 1.9408 16.1145 2.08321C16.2074 2.15442 16.2229 2.28445 16.1517 2.37733C16.1083 2.42996 16.0464 2.45782 15.9845 2.45782ZM4.46747 2.15132C4.39936 2.15132 4.33434 2.12036 4.2941 2.06154C4.22908 1.96556 4.25385 1.83553 4.34673 1.77052C4.53868 1.63739 4.73992 1.51045 4.94116 1.38971C5.04023 1.33089 5.17026 1.36494 5.22908 1.46401C5.2879 1.56309 5.25385 1.69312 5.15478 1.75194C4.95973 1.86649 4.76778 1.99033 4.58512 2.11727C4.55106 2.13894 4.51081 2.15132 4.46747 2.15132ZM14.5882 1.55999C14.5542 1.55999 14.5201 1.5507 14.4891 1.53522C14.291 1.42996 14.0836 1.33089 13.8792 1.23801C13.774 1.19157 13.7244 1.06773 13.7709 0.962467C13.8173 0.857204 13.9412 0.807669 14.0464 0.854108C14.26 0.950083 14.4737 1.05225 14.6842 1.16371C14.7864 1.21943 14.8266 1.34327 14.7709 1.44853C14.7368 1.51974 14.6656 1.55999 14.5882 1.55999ZM5.9102 1.32779C5.8297 1.32779 5.7554 1.28135 5.72134 1.20705C5.6718 1.10179 5.71825 0.977947 5.82351 0.928411C6.03713 0.82934 6.25385 0.736461 6.47366 0.655966C6.58202 0.615718 6.70276 0.66835 6.74301 0.776709C6.78326 0.885068 6.73063 1.00581 6.62227 1.04606C6.41174 1.12655 6.20122 1.21324 5.99998 1.30922C5.96902 1.3216 5.93806 1.32779 5.9102 1.32779ZM13.0619 0.912932C13.0402 0.912932 13.0186 0.909836 12.9969 0.903644C12.7833 0.832437 12.5634 0.770517 12.3467 0.714789C12.2353 0.686926 12.1672 0.572374 12.195 0.460919C12.2229 0.349464 12.3374 0.278257 12.4489 0.309216C12.678 0.364944 12.904 0.433055 13.1269 0.504262C13.2384 0.541414 13.2972 0.659061 13.26 0.76742C13.2322 0.854108 13.1517 0.912932 13.0619 0.912932ZM7.46747 0.761229C7.37459 0.761229 7.291 0.699309 7.26623 0.60643C7.23527 0.494975 7.30338 0.380423 7.41484 0.349464C7.64085 0.287544 7.87304 0.234913 8.10215 0.188474C8.2167 0.166802 8.32506 0.241105 8.34673 0.355656C8.3684 0.470207 8.2941 0.578566 8.17955 0.600238C7.95973 0.643582 7.73682 0.693117 7.5201 0.75194C7.50462 0.761228 7.48605 0.761229 7.46747 0.761229ZM11.4458 0.532127C11.4365 0.532127 11.4241 0.532127 11.4148 0.529031C11.1919 0.494975 10.9659 0.470207 10.743 0.454728C10.6285 0.44544 10.5418 0.346368 10.5511 0.228721C10.5604 0.11417 10.6594 0.0274825 10.7771 0.0367705C11.0124 0.0553463 11.2477 0.0801141 11.4799 0.11417C11.5944 0.12965 11.6749 0.238009 11.6563 0.35256C11.6377 0.457823 11.548 0.532127 11.4458 0.532127ZM9.09905 0.470207C8.99069 0.470207 8.90091 0.389712 8.89162 0.281353C8.88233 0.166802 8.96592 0.0646342 9.08047 0.0522503C9.31267 0.0305785 9.55106 0.0181945 9.78636 0.0120026C9.89781 0.00581062 9.99688 0.101786 9.99998 0.216337C10.0031 0.330888 9.9102 0.426863 9.79565 0.429959C9.56964 0.436151 9.34363 0.448536 9.12072 0.470207C9.11453 0.470207 9.10524 0.470207 9.09905 0.470207Z"
            fill="currentColor" />
        <path
            d="M3.02155 18.6964C4.0013 18.6964 4.79555 17.9022 4.79555 16.9224C4.79555 15.9427 4.0013 15.1484 3.02155 15.1484C2.0418 15.1484 1.24756 15.9427 1.24756 16.9224C1.24756 17.9022 2.0418 18.6964 3.02155 18.6964Z"
            fill="currentColor" />
        <path
            d="M16.9844 4.84486C17.9642 4.84486 18.7584 4.05062 18.7584 3.07087C18.7584 2.09112 17.9642 1.29688 16.9844 1.29688C16.0047 1.29688 15.2104 2.09112 15.2104 3.07087C15.2104 4.05062 16.0047 4.84486 16.9844 4.84486Z"
            fill="currentColor" />
    </g>
    <defs>
        <clipPath id="clip0_435_3207">
            <rect width="20" height="20" fill="white" />
        </clipPath>
    </defs>
</svg>