<svg width="16" height="16" viewBox="0 0 16 16" fill="none" xmlns="http://www.w3.org/2000/svg">
    <path
        d="M1.3647 9.77867C1.3871 9.86325 1.42603 9.94255 1.47923 10.012C1.53244 10.0815 1.59888 10.1397 1.6747 10.1833L2.94804 10.9193V12.3853C2.94804 12.5621 3.01827 12.7317 3.1433 12.8567C3.26832 12.9818 3.43789 13.052 3.6147 13.052H5.0807L5.8167 14.3253C5.87572 14.4262 5.95999 14.51 6.06122 14.5685C6.16245 14.6269 6.27715 14.658 6.39404 14.6587C6.51004 14.6587 6.62537 14.628 6.72804 14.5687L8.00004 13.8333L9.27337 14.5693C9.42645 14.6576 9.60829 14.6816 9.77901 14.636C9.94973 14.5903 10.0954 14.4789 10.184 14.326L10.9194 13.0527H12.3854C12.5622 13.0527 12.7317 12.9824 12.8568 12.8574C12.9818 12.7324 13.052 12.5628 13.052 12.386V10.92L14.3254 10.184C14.4012 10.1402 14.4677 10.0818 14.521 10.0123C14.5743 9.94275 14.6133 9.8634 14.6359 9.77877C14.6585 9.69413 14.6642 9.60587 14.6527 9.51903C14.6411 9.43219 14.6126 9.34847 14.5687 9.27267L13.8334 8L14.5694 6.728C14.6578 6.57496 14.6819 6.39306 14.6363 6.22229C14.5906 6.05152 14.479 5.90585 14.326 5.81734L13.0527 5.08134V3.61467C13.0527 3.43786 12.9825 3.26829 12.8574 3.14326C12.7324 3.01824 12.5628 2.948 12.386 2.948H10.92L10.1847 1.67534C10.0959 1.52261 9.95052 1.41101 9.78004 1.36467C9.69548 1.34175 9.60721 1.33583 9.52035 1.34728C9.43349 1.35872 9.34977 1.38729 9.27404 1.43134L8.00004 2.16667L6.72737 1.43067C6.57433 1.34221 6.39243 1.31815 6.22165 1.36378C6.05088 1.40942 5.90522 1.521 5.8167 1.674L5.0807 2.94734H3.6147C3.43789 2.94734 3.26832 3.01757 3.1433 3.1426C3.01827 3.26762 2.94804 3.43719 2.94804 3.614V5.08L1.6747 5.816C1.52174 5.9049 1.41025 6.0508 1.36464 6.22174C1.31904 6.39267 1.34303 6.57472 1.43137 6.728L2.16737 8L1.43137 9.272C1.34336 9.42554 1.31941 9.60759 1.3647 9.77867ZM8.00004 8.66667C5.68004 8.66667 5.33337 7.414 5.33337 6.66667C5.33337 5.80867 6.01937 4.94467 7.33337 4.72334V4.008H8.6667V4.74733C9.8227 5.02067 10.2667 5.98267 10.2667 6.66667H9.60004L8.93337 6.67867C8.92404 6.42533 8.79004 6 8.00004 6C7.13404 6 6.6667 6.34334 6.6667 6.66667C6.6667 6.916 6.6667 7.33334 8.00004 7.33334C10.32 7.33334 10.6667 8.586 10.6667 9.33334C10.6667 10.1913 9.9807 11.0553 8.6667 11.2767V12H7.33337V11.28C5.77404 11.0353 5.33337 9.94467 5.33337 9.33334H6.6667C6.67404 9.42867 6.7727 10 8.00004 10C8.92004 10 9.33337 9.61 9.33337 9.33334C9.33337 9.11667 9.33337 8.66667 8.00004 8.66667Z"
        fill="#020B20" />
</svg>