<svg width="24" height="24" viewBox="0 0 24 24" fill="none" xmlns="http://www.w3.org/2000/svg">
<path d="M18.9718 12.6089C18.6621 16.1875 15.6591 18.9966 11.9959 18.9966C8.33277 18.9966 5.32971 16.1875 5.02003 12.6089H0C0.317827 18.9518 5.56604 24.0001 11.9959 24.0001C18.4258 24.0001 23.674 18.9559 23.9918 12.6089H18.9718Z" fill="white"/>
<path d="M5.01596 11.4971C5.27266 7.86556 8.30017 5.0035 12 5.0035C15.6998 5.0035 18.7273 7.86963 18.984 11.4971H24C23.7351 5.10121 18.4666 0 12 0C5.53345 0 0.264856 5.10528 0 11.4971H5.01596Z" fill="url(#paint0_linear_1293_4023)"/>
<defs>
<linearGradient id="paint0_linear_1293_4023" x1="11.9978" y1="11.4974" x2="11.9978" y2="-0.00055786" gradientUnits="userSpaceOnUse">
<stop stop-color="#2CE1FF"/>
<stop offset="0.2592" stop-color="#2DCDFF"/>
<stop offset="0.7886" stop-color="#3099FF"/>
<stop offset="1" stop-color="#3182FF"/>
</linearGradient>
</defs>
</svg>
