<svg width="16" height="14" viewBox="0 0 16 14" fill="none" xmlns="http://www.w3.org/2000/svg">
    <path
        d="M15.898 7.24597L9.63723 13.5067C9.57196 13.572 9.48344 13.6087 9.39114 13.6087C9.29884 13.6087 9.21033 13.572 9.14506 13.5067C9.0798 13.4415 9.04313 13.353 9.04313 13.2607C9.04313 13.1684 9.0798 13.0798 9.14506 13.0146L14.8119 7.34771H0.34782C0.255572 7.34771 0.167103 7.31107 0.101874 7.24584C0.0366453 7.18061 0 7.09214 0 6.99989C0 6.90764 0.0366453 6.81917 0.101874 6.75394C0.167103 6.68871 0.255572 6.65207 0.34782 6.65207H14.8119L9.14506 0.98521C9.0798 0.919945 9.04313 0.831426 9.04313 0.739127C9.04313 0.646828 9.0798 0.558309 9.14506 0.493044C9.21033 0.427779 9.29884 0.391113 9.39114 0.391113C9.48344 0.391113 9.57196 0.427779 9.63723 0.493044L15.898 6.75381C15.9303 6.78611 15.956 6.82447 15.9735 6.86669C15.991 6.90892 16 6.95418 16 6.99989C16 7.0456 15.991 7.09086 15.9735 7.13309C15.956 7.17531 15.9303 7.21367 15.898 7.24597Z"
        fill="black" />
</svg>