<svg width="36" height="36" viewBox="0 0 36 36" fill="none" xmlns="http://www.w3.org/2000/svg">
    <g clip-path="url(#clip0_9_775)">
        <mask id="mask0_9_775" style="mask-type:luminance" maskUnits="userSpaceOnUse" x="0" y="0" width="36"
            height="36">
            <path d="M36 0H0V36H36V0Z" fill="white" />
        </mask>
        <g mask="url(#mask0_9_775)">
            <path
                d="M28.2722 0H7.72776C3.45984 0 0 3.45984 0 7.72776V28.2722C0 32.5402 3.45984 36 7.72776 36H28.2722C32.5402 36 36 32.5402 36 28.2722V7.72776C36 3.45984 32.5402 0 28.2722 0Z"
                fill="#AB9FF2" />
            <path fill-rule="evenodd" clip-rule="evenodd"
                d="M15.5166 23.3944C14.1031 25.5603 11.7344 28.3013 8.5827 28.3013C7.09278 28.3013 5.66016 27.688 5.66016 25.0236C5.66016 18.2383 14.9244 7.73438 23.5201 7.73438C28.4101 7.73438 30.3585 11.127 30.3585 14.9798C30.3585 19.925 27.1494 25.5795 23.9594 25.5795C22.9471 25.5795 22.4504 25.0236 22.4504 24.1419C22.4504 23.9119 22.4886 23.6628 22.565 23.3944C21.4762 25.2537 19.3751 26.9787 17.4076 26.9787C15.975 26.9787 15.2491 26.0779 15.2491 24.8128C15.2491 24.3528 15.3446 23.8736 15.5166 23.3944ZM27.1309 14.8461C27.1309 15.9687 26.4685 16.53 25.7276 16.53C24.9754 16.53 24.3243 15.9687 24.3243 14.8461C24.3243 13.7234 24.9754 13.1621 25.7276 13.1621C26.4685 13.1621 27.1309 13.7234 27.1309 14.8461ZM22.9209 14.8461C22.9209 15.9688 22.2586 16.5301 21.5176 16.5301C20.7655 16.5301 20.1143 15.9688 20.1143 14.8461C20.1143 13.7235 20.7655 13.1622 21.5176 13.1622C22.2586 13.1622 22.9209 13.7235 22.9209 14.8461Z"
                fill="#FFFDF8" />
        </g>
    </g>
    <defs>
        <clipPath id="clip0_9_775">
            <rect width="36" height="36" fill="white" />
        </clipPath>
    </defs>
</svg>