<svg width="16" height="17" viewBox="0 0 16 17" fill="none" xmlns="http://www.w3.org/2000/svg">
    <path
        d="M6.66667 2.30469H2.66667C2.48986 2.30469 2.32029 2.37493 2.19526 2.49995C2.07024 2.62497 2 2.79454 2 2.97135V6.97135C2 7.14817 2.07024 7.31773 2.19526 7.44276C2.32029 7.56778 2.48986 7.63802 2.66667 7.63802H6.66667C6.84348 7.63802 7.01305 7.56778 7.13807 7.44276C7.2631 7.31773 7.33333 7.14817 7.33333 6.97135V2.97135C7.33333 2.79454 7.2631 2.62497 7.13807 2.49995C7.01305 2.37493 6.84348 2.30469 6.66667 2.30469ZM6 6.30469H3.33333V3.63802H6V6.30469ZM9.33333 7.63802H13.3333C13.5101 7.63802 13.6797 7.56778 13.8047 7.44276C13.9298 7.31773 14 7.14817 14 6.97135V2.97135C14 2.79454 13.9298 2.62497 13.8047 2.49995C13.6797 2.37493 13.5101 2.30469 13.3333 2.30469H9.33333C9.15652 2.30469 8.98695 2.37493 8.86193 2.49995C8.73691 2.62497 8.66667 2.79454 8.66667 2.97135V6.97135C8.66667 7.14817 8.73691 7.31773 8.86193 7.44276C8.98695 7.56778 9.15652 7.63802 9.33333 7.63802ZM10 3.63802H12.6667V6.30469H10V3.63802ZM2 13.638C2 13.8148 2.07024 13.9844 2.19526 14.1094C2.32029 14.2345 2.48986 14.3047 2.66667 14.3047H6.66667C6.84348 14.3047 7.01305 14.2345 7.13807 14.1094C7.2631 13.9844 7.33333 13.8148 7.33333 13.638V9.63802C7.33333 9.46121 7.2631 9.29164 7.13807 9.16662C7.01305 9.04159 6.84348 8.97135 6.66667 8.97135H2.66667C2.48986 8.97135 2.32029 9.04159 2.19526 9.16662C2.07024 9.29164 2 9.46121 2 9.63802V13.638ZM3.33333 10.3047H6V12.9714H3.33333V10.3047ZM8.66667 13.638C8.66667 13.8148 8.73691 13.9844 8.86193 14.1094C8.98695 14.2345 9.15652 14.3047 9.33333 14.3047H13.3333C13.5101 14.3047 13.6797 14.2345 13.8047 14.1094C13.9298 13.9844 14 13.8148 14 13.638V9.63802C14 9.46121 13.9298 9.29164 13.8047 9.16662C13.6797 9.04159 13.5101 8.97135 13.3333 8.97135H9.33333C9.15652 8.97135 8.98695 9.04159 8.86193 9.16662C8.73691 9.29164 8.66667 9.46121 8.66667 9.63802V13.638ZM10 10.3047H12.6667V12.9714H10V10.3047Z"
        fill="#8BA6CF" />
</svg>
