<svg width="36" height="36" viewBox="0 0 36 36" fill="none" xmlns="http://www.w3.org/2000/svg">
<path d="M21.5864 20.4803L18.5798 23.4869V10.0126C18.5798 9.555 18.2084 9.18359 17.7508 9.18359C17.2932 9.18359 16.9218 9.555 16.9218 10.0126V23.4858L13.9152 20.4793C13.5914 20.1554 13.0663 20.1554 12.7424 20.4793C12.4185 20.8031 12.4185 21.3282 12.7424 21.6521L17.1639 26.0735C17.2401 26.1498 17.3318 26.2105 17.4324 26.2525C17.533 26.2945 17.6414 26.3167 17.7497 26.3167C17.8581 26.3167 17.9651 26.2945 18.0668 26.2525C18.1685 26.2105 18.2593 26.1498 18.3356 26.0735L22.757 21.6521C23.0809 21.3282 23.0809 20.8031 22.757 20.4793C22.4332 20.1554 21.9103 20.1565 21.5864 20.4803Z" fill="#3182FF" stroke="#3182FF" stroke-width="0.7"/>
</svg>
