<svg width="24" height="24" viewBox="0 0 24 24" fill="none" xmlns="http://www.w3.org/2000/svg">
<g clip-path="url(#clip0_1511_4417)">
<path d="M12 24C10.3803 24 8.80886 23.6825 7.32886 23.0568C5.89967 22.4523 4.61695 21.587 3.51457 20.4854C2.41304 19.3839 1.54773 18.1003 0.943202 16.6711C0.317505 15.1911 0 13.6197 0 12C0 10.3803 0.317505 8.80886 0.943202 7.32886C1.54773 5.89967 2.41304 4.61695 3.51457 3.51457C4.61695 2.41304 5.89967 1.54773 7.32886 0.943202C8.80886 0.317505 10.3803 0 12 0C13.6197 0 15.1911 0.317505 16.6711 0.943202C18.1003 1.54773 19.3831 2.41304 20.4854 3.51457C21.587 4.6161 22.4523 5.89967 23.0568 7.32886C23.6825 8.80886 24 10.3803 24 12C24 13.6197 23.6825 15.1911 23.0568 16.6711C22.4523 18.1003 21.587 19.3831 20.4854 20.4854C19.3839 21.587 18.1003 22.4523 16.6711 23.0568C15.1911 23.6833 13.6197 24 12 24Z" fill="white"/>
<path d="M11.9999 23.364C18.2761 23.364 23.364 18.2761 23.364 11.9999C23.364 5.72364 18.2761 0.635742 11.9999 0.635742C5.72364 0.635742 0.635742 5.72364 0.635742 11.9999C0.635742 18.2761 5.72364 23.364 11.9999 23.364Z" fill="black"/>
<path d="M12.2795 7.47916C13.7976 7.61463 14.9923 8.87195 15.0296 10.4163L17.3588 11.384L16.1446 9.40451L18.7262 6.82298L17.1835 5.28033L14.972 7.49271L12.2804 3.10352V7.47916H12.2795Z" fill="white"/>
<path d="M14.9898 10.9912C14.7662 12.3357 13.6554 13.3797 12.2795 13.5033V15.1018L17.4053 11.9954L14.9898 10.9912Z" fill="white"/>
<path d="M9.02398 10.9912L6.6084 11.9945L11.7342 15.101V13.5025C10.3583 13.3797 9.2475 12.3357 9.02398 10.9912Z" fill="white"/>
<path d="M17.3478 13.624L12.2795 16.6958V20.7641L14.3649 17.8253L16.5417 20.0021L18.0844 18.4594L15.6459 16.021L17.3478 13.624Z" fill="white"/>
<path d="M11.7343 16.6958L6.66606 13.624L8.36788 16.021L5.92944 18.4594L7.4721 20.0021L9.64891 17.8261L11.7343 20.7632V16.6958Z" fill="white"/>
<path d="M6.65499 11.3849L8.9842 10.4171C9.02146 8.8728 10.2161 7.61547 11.7342 7.48001V3.10352L9.04262 7.49271L6.83025 5.28033L5.2876 6.82383L7.86913 9.40536L6.65499 11.3849Z" fill="white"/>
<path d="M12.1136 10.144C11.366 9.91456 11.366 9.78756 11.366 9.68511C11.366 9.54287 11.581 9.34644 11.9849 9.34644C12.2237 9.34644 12.625 9.40571 12.625 9.80534H13.3523C13.3523 9.09582 12.8028 8.61914 11.9849 8.61914C11.1103 8.61914 10.6387 9.16864 10.6387 9.68511C10.6387 10.3912 11.2584 10.6419 11.8951 10.8383C12.6428 11.0677 12.647 11.1964 12.647 11.2989C12.647 11.4411 12.4319 11.6376 12.0281 11.6376C11.7885 11.6376 11.388 11.5783 11.388 11.1787H10.6607C10.6607 11.8882 11.2102 12.3649 12.0281 12.3649C12.9027 12.3649 13.3743 11.8154 13.3743 11.2989C13.3751 10.5919 12.7511 10.3396 12.1136 10.144Z" fill="white"/>
</g>
<defs>
<clipPath id="clip0_1511_4417">
<rect width="24" height="24" fill="white"/>
</clipPath>
</defs>
</svg>
