<svg width="16" height="17" viewBox="0 0 16 17" fill="none" xmlns="http://www.w3.org/2000/svg">
    <path
        d="M13.5 4.30469H3.5C3.36739 4.30469 3.24021 4.25201 3.14645 4.15824C3.05268 4.06447 3 3.9373 3 3.80469C3 3.67208 3.05268 3.5449 3.14645 3.45113C3.24021 3.35737 3.36739 3.30469 3.5 3.30469H12C12.1326 3.30469 12.2598 3.25201 12.3536 3.15824C12.4473 3.06447 12.5 2.9373 12.5 2.80469C12.5 2.67208 12.4473 2.5449 12.3536 2.45113C12.2598 2.35737 12.1326 2.30469 12 2.30469H3.5C3.10218 2.30469 2.72064 2.46272 2.43934 2.74403C2.15804 3.02533 2 3.40686 2 3.80469V11.8047C2 12.2025 2.15804 12.584 2.43934 12.8653C2.72064 13.1467 3.10218 13.3047 3.5 13.3047H13.5C13.7652 13.3047 14.0196 13.1993 14.2071 13.0118C14.3946 12.8243 14.5 12.5699 14.5 12.3047V5.30469C14.5 5.03947 14.3946 4.78512 14.2071 4.59758C14.0196 4.41004 13.7652 4.30469 13.5 4.30469ZM13.5 12.3047H3.5C3.36739 12.3047 3.24021 12.252 3.14645 12.1582C3.05268 12.0645 3 11.9373 3 11.8047V5.21906C3.16053 5.27602 3.32966 5.30499 3.5 5.30469H13.5V12.3047ZM10.5 8.55469C10.5 8.40635 10.544 8.26135 10.6264 8.13801C10.7088 8.01467 10.8259 7.91854 10.963 7.86178C11.1 7.80501 11.2508 7.79016 11.3963 7.8191C11.5418 7.84804 11.6754 7.91947 11.7803 8.02436C11.8852 8.12925 11.9566 8.26288 11.9856 8.40837C12.0145 8.55386 11.9997 8.70466 11.9429 8.8417C11.8861 8.97874 11.79 9.09588 11.6667 9.17829C11.5433 9.2607 11.3983 9.30469 11.25 9.30469C11.0511 9.30469 10.8603 9.22567 10.7197 9.08502C10.579 8.94437 10.5 8.7536 10.5 8.55469Z"
        fill="#8BA6CF" />
</svg>