<svg width="32" height="30" viewBox="0 0 32 30" fill="none" xmlns="http://www.w3.org/2000/svg">
<g clip-path="url(#clip0_688_1567)">
<path d="M31.2582 0L17.5273 10.1599L20.0807 4.17238L31.2582 0Z" fill="#E17726"/>
<path d="M0.773813 0.0119629L11.9214 4.17309L14.3459 10.2391L0.773813 0.0119629ZM25.7324 21.6072L31.8013 21.7227L29.6803 28.928L22.2749 26.8891L25.7324 21.6072ZM6.26731 21.6072L9.71194 26.8891L2.31906 28.9281L0.210938 21.7227L6.26731 21.6072Z" fill="#E27625"/>
<path d="M14.0164 8.69399L14.2644 16.7044L6.84302 16.3667L8.95402 13.182L8.98077 13.1514L14.0164 8.69399ZM17.9068 8.60461L23.0193 13.1516L23.0458 13.1821L25.1568 16.3669L17.737 16.7044L17.9068 8.60461ZM9.92939 21.6305L13.9816 24.7879L9.27439 27.0605L9.92939 21.6305ZM22.0714 21.63L22.7128 27.0606L18.0186 24.7876L22.0714 21.63Z" fill="#E27625"/>
<path d="M18.1222 24.4902L22.8856 26.7967L18.4547 28.9025L18.5007 27.5107L18.1222 24.4902ZM13.8763 24.4912L13.5127 27.488L13.5426 28.9009L9.10132 26.7967L13.8763 24.4912Z" fill="#D5BFB2"/>
<path d="M12.5009 17.7499L13.7457 20.3659L9.50781 19.1244L12.5009 17.7499ZM19.4991 17.7501L22.5063 19.1244L18.2546 20.3655L19.4991 17.7501Z" fill="#233447"/>
<path d="M10.2534 21.6037L9.56835 27.2337L5.89673 21.7268L10.2534 21.6037ZM21.7471 21.6038L26.1039 21.7268L22.4185 27.234L21.7471 21.6038ZM25.2641 16.0483L22.0935 19.2797L19.6489 18.1626L18.4785 20.6231L17.7112 16.392L25.2641 16.0483ZM6.73448 16.0483L14.2889 16.392L13.5215 20.6231L12.3509 18.163L9.91923 19.2798L6.73448 16.0483Z" fill="#CC6228"/>
<path d="M6.52075 15.3853L10.108 19.0254L10.2323 22.619L6.52075 15.3853ZM25.4829 15.3788L21.7646 22.6254L21.9046 19.0254L25.4829 15.3788ZM14.1134 15.607L14.2578 16.5158L14.6145 18.7797L14.3851 25.7328L13.3008 20.1472L13.3004 20.0894L14.1134 15.607ZM17.8848 15.5944L18.6999 20.0894L18.6995 20.1472L17.6124 25.7468L17.5694 24.3462L17.3998 18.7384L17.8848 15.5944Z" fill="#E27525"/>
<path d="M22.2234 18.8807L22.1021 22.003L18.3178 24.9514L17.5528 24.4109L18.4103 19.994L22.2234 18.8807ZM9.78955 18.8807L13.5894 19.994L14.4469 24.4109L13.6819 24.9514L9.89755 22.0027L9.78955 18.8807Z" fill="#F5841F"/>
<path d="M8.3772 26.1073L13.2187 28.4013L13.1982 27.4217L13.6033 27.066H18.3951L18.8148 27.4204L18.7838 28.3993L23.5947 26.1131L21.2537 28.0476L18.4231 29.9917H13.5644L10.7357 28.0395L8.3772 26.1073Z" fill="#C0AC9D"/>
<path d="M17.7755 24.1848L18.46 24.6684L18.8611 27.8689L18.2806 27.3788H13.7211L13.1516 27.8788L13.5396 24.6687L14.2244 24.1848H17.7755Z" fill="#161616"/>
<path d="M30.3517 0.28125L32 5.22587L30.9706 10.2255L31.7036 10.7909L30.7118 11.5476L31.4573 12.1234L30.4701 13.0223L31.0761 13.4611L29.4679 15.3394L22.8716 13.4187L22.8145 13.3881L18.0611 9.37838L30.3517 0.28125ZM1.64825 0.28125L13.939 9.37838L9.1855 13.3881L9.12838 13.4187L2.53212 15.3394L0.923875 13.4611L1.52937 13.0226L0.542875 12.1234L1.28688 11.5483L0.280125 10.7894L1.04075 10.2236L0 5.22612L1.64825 0.28125Z" fill="#763E1A"/>
<path d="M22.549 12.9988L29.5381 15.0337L31.8087 22.0319H25.8182L21.6907 22.0839L24.6925 16.2329L22.549 12.9988ZM9.45098 12.9988L7.30711 16.2329L10.3092 22.0839L6.18361 22.0319H0.203857L2.46173 15.0338L9.45098 12.9988ZM20.423 4.13904L18.4681 9.41891L18.0532 16.5514L17.8945 18.787L17.8819 24.498H14.118L14.1057 18.7978L13.9465 16.5495L13.5315 9.41891L11.5769 4.13904H20.423Z" fill="#F5841F"/>
</g>
<defs>
<clipPath id="clip0_688_1567">
<rect width="32" height="30" fill="white"/>
</clipPath>
</defs>
</svg>
