<svg width="408" height="185" viewBox="0 0 408 185" fill="none" xmlns="http://www.w3.org/2000/svg">
<rect x="0.508242" y="0.508242" width="31.511" height="31.511" rx="15.7555" stroke="white" stroke-width="1.01648"/>
<rect x="51.3327" y="31.0043" width="31.511" height="31.511" rx="15.7555" stroke="white" stroke-width="1.01648"/>
<rect x="61.4975" y="91.9926" width="31.511" height="31.511" rx="15.7555" stroke="white" stroke-width="1.01648"/>
<rect x="122.487" y="61.5004" width="31.511" height="31.511" rx="15.7555" stroke="white" stroke-width="1.01648"/>
<rect x="112.322" y="152.983" width="31.511" height="31.511" rx="15.7555" stroke="white" stroke-width="1.01648"/>
<rect x="0.508242" y="132.651" width="31.511" height="31.511" rx="15.7555" stroke="white" stroke-width="1.01648"/>
<path d="M222.328 93.0384L208.605 106.761C208.462 106.904 208.268 106.984 208.066 106.984C207.864 106.984 207.67 106.904 207.527 106.761C207.384 106.618 207.303 106.424 207.303 106.222C207.303 106.019 207.384 105.825 207.527 105.682L219.947 93.2613H188.245C188.042 93.2613 187.848 93.181 187.705 93.0381C187.562 92.8951 187.482 92.7012 187.482 92.499C187.482 92.2968 187.562 92.1029 187.705 91.9599C187.848 91.8169 188.042 91.7366 188.245 91.7366H219.947L207.527 79.3158C207.384 79.1728 207.303 78.9788 207.303 78.7765C207.303 78.5742 207.384 78.3801 207.527 78.2371C207.67 78.094 207.864 78.0137 208.066 78.0137C208.268 78.0137 208.462 78.094 208.605 78.2371L222.328 91.9596C222.399 92.0304 222.455 92.1145 222.493 92.207C222.532 92.2996 222.551 92.3988 222.551 92.499C222.551 92.5992 222.532 92.6984 222.493 92.7909C222.455 92.8835 222.399 92.9676 222.328 93.0384Z" fill="white"/>
<g clip-path="url(#clip0_16534_10463)">
<path d="M376.038 89.3077C374.389 66.2197 355.149 47.9613 331.629 47.9613C308.109 47.9613 288.869 66.2197 287.22 89.3077H255.337C257.025 48.5896 290.518 16.1172 331.668 16.1172C372.818 16.1172 406.312 48.5896 408 89.3077H376.038Z" fill="#D8F500"/>
<path d="M287.261 96.416C289.224 119.19 308.347 137.056 331.631 137.056C354.915 137.056 374.037 119.19 376.001 96.416H407.923C405.921 136.781 372.506 168.9 331.631 168.9C290.756 168.9 257.38 136.781 255.338 96.416H287.261Z" fill="#D8F500"/>
</g>
<defs>
<clipPath id="clip0_16534_10463">
<rect width="152.473" height="152.473" fill="white" transform="matrix(-1 0 0 1 408 16.2637)"/>
</clipPath>
</defs>
</svg>
