<svg width="22" height="22" viewBox="0 0 22 22" fill="none" xmlns="http://www.w3.org/2000/svg">
<path d="M16.5 9.85384C16.1242 9.85384 15.8125 9.54218 15.8125 9.16634V7.33301C15.8125 4.44551 14.9967 2.52051 11 2.52051C7.00333 2.52051 6.1875 4.44551 6.1875 7.33301V9.16634C6.1875 9.54218 5.87583 9.85384 5.5 9.85384C5.12417 9.85384 4.8125 9.54218 4.8125 9.16634V7.33301C4.8125 4.67467 5.45417 1.14551 11 1.14551C16.5458 1.14551 17.1875 4.67467 17.1875 7.33301V9.16634C17.1875 9.54218 16.8758 9.85384 16.5 9.85384Z" fill="#292D32"/>
<path d="M15.5835 20.8545H6.41683C2.37433 20.8545 1.146 19.6262 1.146 15.5837V13.7503C1.146 9.70783 2.37433 8.47949 6.41683 8.47949H15.5835C19.626 8.47949 20.8543 9.70783 20.8543 13.7503V15.5837C20.8543 19.6262 19.626 20.8545 15.5835 20.8545ZM6.41683 9.85449C3.13516 9.85449 2.521 10.4778 2.521 13.7503V15.5837C2.521 18.8562 3.13516 19.4795 6.41683 19.4795H15.5835C18.8652 19.4795 19.4793 18.8562 19.4793 15.5837V13.7503C19.4793 10.4778 18.8652 9.85449 15.5835 9.85449H6.41683Z" fill="#292D32"/>
<path d="M7.33317 15.5833C7.214 15.5833 7.09483 15.5558 6.98483 15.51C6.86567 15.4641 6.77401 15.4 6.68235 15.3175C6.51735 15.1433 6.4165 14.9141 6.4165 14.6666C6.4165 14.5475 6.44399 14.4283 6.48982 14.3183C6.53566 14.1991 6.59985 14.1075 6.68235 14.0158C6.77401 13.9333 6.86567 13.8691 6.98483 13.8233C7.31483 13.6766 7.72733 13.7591 7.984 14.0158C8.0665 14.1075 8.13068 14.2083 8.17652 14.3183C8.22235 14.4283 8.24984 14.5475 8.24984 14.6666C8.24984 14.905 8.149 15.1433 7.984 15.3175C7.80983 15.4825 7.5715 15.5833 7.33317 15.5833Z" fill="#292D32"/>
<path d="M11.0002 15.5832C10.7618 15.5832 10.5235 15.4823 10.3493 15.3173C10.1843 15.1432 10.0835 14.914 10.0835 14.6665C10.0835 14.5473 10.1018 14.4282 10.1568 14.3182C10.2027 14.2082 10.2668 14.1073 10.3493 14.0157C10.5602 13.8048 10.881 13.704 11.1743 13.7682C11.2385 13.7773 11.2935 13.7957 11.3485 13.8232C11.4035 13.8415 11.4585 13.869 11.5135 13.9057C11.5593 13.9332 11.6052 13.979 11.651 14.0157C11.7335 14.1073 11.7977 14.2082 11.8435 14.3182C11.8893 14.4282 11.9168 14.5473 11.9168 14.6665C11.9168 14.914 11.816 15.1432 11.651 15.3173C11.6052 15.354 11.5593 15.3907 11.5135 15.4273C11.4585 15.464 11.4035 15.4915 11.3485 15.5099C11.2935 15.5374 11.2385 15.5557 11.1743 15.5648C11.1193 15.574 11.0552 15.5832 11.0002 15.5832Z" fill="#292D32"/>
<path d="M14.6667 15.5832C14.4192 15.5832 14.19 15.4823 14.0158 15.3173C13.9333 15.2257 13.8692 15.1248 13.8233 15.0148C13.7775 14.9048 13.75 14.7857 13.75 14.6665C13.75 14.4282 13.8508 14.1898 14.0158 14.0157C14.0617 13.979 14.1075 13.9424 14.1533 13.9057C14.2083 13.869 14.2633 13.8415 14.3183 13.8232C14.3733 13.7957 14.4283 13.7773 14.4833 13.7682C14.7858 13.704 15.0975 13.8048 15.3175 14.0157C15.4825 14.1898 15.5833 14.419 15.5833 14.6665C15.5833 14.7857 15.5558 14.9048 15.51 15.0148C15.4642 15.134 15.4 15.2257 15.3175 15.3173C15.1433 15.4823 14.905 15.5832 14.6667 15.5832Z" fill="#292D32"/>
</svg>
