<svg width="73" height="72" viewBox="0 0 73 72" fill="none" xmlns="http://www.w3.org/2000/svg">
<rect x="0.759731" y="0.0928612" width="71.7821" height="71.8143" rx="35.8911" stroke="#D8F500" stroke-width="0.185722"/>
<rect x="4.00987" y="3.3441" width="65.2819" height="65.3133" rx="32.6409" stroke="#D8F500" stroke-width="0.742889"/>
<path d="M24.3707 35.1161C24.8271 28.7261 30.1521 23.6728 36.6617 23.6728C43.1712 23.6728 48.4962 28.7261 48.9526 35.1161H57.7769C57.3096 23.8467 48.0398 14.8594 36.6508 14.8594C25.2618 14.8594 15.992 23.8467 15.5247 35.1161H24.3707Z" fill="white"/>
<path d="M48.9415 37.082C48.3982 43.3851 43.1058 48.3297 36.6614 48.3297C30.2171 48.3297 24.9247 43.3851 24.3813 37.082H15.5461C16.1004 48.2537 25.3485 57.1431 36.6614 57.1431C47.9743 57.1431 57.2116 48.2537 57.7767 37.082H48.9415Z" fill="white"/>
</svg>
