<svg width="48" height="49" viewBox="0 0 48 49" fill="none" xmlns="http://www.w3.org/2000/svg">
<path d="M36.8419 28.9081C37.2646 29.3308 37.5021 29.9041 37.5021 30.5019C37.5021 31.0996 37.2646 31.6729 36.8419 32.0956C36.4192 32.5183 35.8459 32.7558 35.2482 32.7558C34.6504 32.7558 34.0771 32.5183 33.6544 32.0956L31.5 29.9375V39.5C31.5 40.0967 31.263 40.669 30.841 41.091C30.4191 41.5129 29.8468 41.75 29.25 41.75C28.6533 41.75 28.081 41.5129 27.659 41.091C27.2371 40.669 27 40.0967 27 39.5V29.9375L24.8419 32.0975C24.4192 32.5202 23.8459 32.7577 23.2482 32.7577C22.6504 32.7577 22.0771 32.5202 21.6544 32.0975C21.2317 31.6748 20.9943 31.1015 20.9943 30.5037C20.9943 29.906 21.2317 29.3327 21.6544 28.91L27.6544 22.91C27.8634 22.7002 28.1118 22.5338 28.3853 22.4202C28.6588 22.3067 28.952 22.2482 29.2482 22.2482C29.5443 22.2482 29.8375 22.3067 30.111 22.4202C30.3845 22.5338 30.6329 22.7002 30.8419 22.91L36.8419 28.9081ZM30 7.25C26.8859 7.2515 23.8302 8.09523 21.1565 9.69185C18.4829 11.2885 16.2908 13.5785 14.8125 16.3194C13.0909 16.1391 11.3507 16.3112 9.69775 16.8253C8.04485 17.3394 6.51393 18.1847 5.19831 19.3096C3.88269 20.4346 2.80992 21.8157 2.04538 23.3687C1.28084 24.9217 0.840543 26.6141 0.751323 28.3428C0.662103 30.0716 0.925828 31.8003 1.52643 33.4238C2.12702 35.0473 3.05192 36.5315 4.24473 37.7859C5.43755 39.0403 6.87331 40.0387 8.46451 40.7202C10.0557 41.4017 11.769 41.7521 13.5 41.75H18.75C19.3468 41.75 19.9191 41.5129 20.341 41.091C20.763 40.669 21 40.0967 21 39.5C21 38.9033 20.763 38.331 20.341 37.909C19.9191 37.4871 19.3468 37.25 18.75 37.25H13.5C11.3502 37.2368 9.2904 36.385 7.75926 34.8758C6.22811 33.3666 5.34657 31.3193 5.30234 29.1699C5.2581 27.0205 6.05467 24.9387 7.52242 23.3678C8.99018 21.7969 11.0132 20.861 13.1607 20.7594C12.8873 21.9875 12.7496 23.2419 12.75 24.5C12.75 25.0967 12.9871 25.669 13.409 26.091C13.831 26.5129 14.4033 26.75 15 26.75C15.5968 26.75 16.1691 26.5129 16.591 26.091C17.013 25.669 17.25 25.0967 17.25 24.5C17.2516 22.6556 17.6533 20.8335 18.4274 19.1594C19.2015 17.4853 20.3296 15.9991 21.7339 14.8033C23.1382 13.6075 24.7852 12.7306 26.5613 12.2332C28.3373 11.7357 30.2002 11.6295 32.0213 11.9219C33.8424 12.2143 35.5783 12.8983 37.1094 13.9268C38.6405 14.9552 39.9302 16.3036 40.8895 17.8789C41.8489 19.4542 42.4551 21.2188 42.6662 23.0511C42.8774 24.8834 42.6884 26.7397 42.1125 28.4919C42.0201 28.7726 41.9838 29.0687 42.0058 29.3635C42.0278 29.6582 42.1076 29.9457 42.2407 30.2095C42.3739 30.4734 42.5576 30.7085 42.7816 30.9013C43.0055 31.0941 43.2653 31.241 43.546 31.3334C43.8267 31.4259 44.1228 31.4622 44.4175 31.4402C44.7123 31.4182 44.9998 31.3383 45.2636 31.2052C45.5275 31.0721 45.7626 30.8883 45.9554 30.6644C46.1482 30.4404 46.2951 30.1807 46.3875 29.9C47.2392 27.3084 47.4644 24.5519 47.0449 21.8564C46.6253 19.1609 45.5728 16.6032 43.9738 14.3931C42.3747 12.183 40.2746 10.3833 37.8456 9.14167C35.4167 7.90002 32.728 7.25174 30 7.25Z" fill="#8BA6CF"/>
</svg>
