<svg width="120" height="52" viewBox="0 0 120 52" fill="none" xmlns="http://www.w3.org/2000/svg">
    <path
        d="M50.2639 19.3404C50.6229 14.2542 54.8569 10.2457 60.0312 10.2457C65.2055 10.2457 69.4395 14.2599 69.7985 19.3404H76.8134C76.443 10.3826 69.0748 3.23804 60.0312 3.23804C50.9876 3.23804 43.6194 10.3883 43.249 19.3404H50.2639Z"
        fill="url(#paint0_linear_15231_261)" />
    <path
        d="M69.7814 20.8971C69.3483 25.9091 65.1485 29.8435 60.0255 29.8435C54.9025 29.8435 50.7027 25.9091 50.2696 20.8971H43.249C43.6935 29.7807 51.0332 36.8512 60.0255 36.8512C69.0178 36.8512 76.3575 29.7864 76.802 20.8971H69.7814Z"
        fill="white" />
    <path
        d="M44.8788 3.54602L37.4479 19.3404C36.4165 19.3404 35.254 18.9527 34.5303 18.3939C33.4419 17.55 32.9575 16.7118 32.7751 16.0048C32.5472 15.1267 32.8036 14.3968 32.8777 14.2087L32.8948 14.1631V14.1574L37.5448 3.54602H44.8788Z"
        fill="url(#paint1_linear_15231_261)" />
    <path
        d="M28.188 25.242L18.7626 3.54602H11.4286L26.4841 35.4485C26.7747 36.0928 27.4358 36.5432 28.188 36.5432C28.963 36.5432 29.6297 36.07 29.9089 35.3914L36.7301 20.8971C30.9917 20.8971 28.188 25.242 28.188 25.242Z"
        fill="white" />
    <path d="M82.455 3.55164L89.3502 19.3404H82.586L75.121 3.55164H82.455Z"
        fill="url(#paint2_linear_15231_261)" />
    <path d="M108.572 3.55164L101.146 19.3404H94.3936L101.237 3.55164H108.572Z"
        fill="url(#paint3_linear_15231_261)" />
    <path
        d="M98.2002 25.721L100.423 20.8971H93.7268L91.8748 25.2477L90.0114 20.8971H83.2985L88.7349 32.6374L87.7776 34.8954L86.6036 37.6095C84.9967 40.8311 83.0136 42.7185 79.811 42.7185C79.2867 42.7185 77.0871 42.7242 75.0698 42.7242V48.6257C77.0244 48.6143 79.5489 48.6257 81.3154 48.6257C86.8145 48.6257 89.5669 44.7427 92.2509 38.653L93.9548 34.9524L98.2173 25.7267L98.2002 25.721Z"
        fill="white" />
    <defs>
        <linearGradient id="paint0_linear_15231_261" x1="60.0281" y1="19.3408" x2="60.0281"
            y2="3.23726" gradientUnits="userSpaceOnUse">
            <stop stop-color="#2CE1FF" />
            <stop offset="0.2592" stop-color="#2DCDFF" />
            <stop offset="0.7886" stop-color="#3099FF" />
            <stop offset="1" stop-color="#3182FF" />
        </linearGradient>
        <linearGradient id="paint1_linear_15231_261" x1="38.7801" y1="19.3409" x2="38.7801"
            y2="3.54337" gradientUnits="userSpaceOnUse">
            <stop stop-color="#2CE1FF" />
            <stop offset="0.2592" stop-color="#2DCDFF" />
            <stop offset="0.7886" stop-color="#3099FF" />
            <stop offset="1" stop-color="#3182FF" />
        </linearGradient>
        <linearGradient id="paint2_linear_15231_261" x1="82.2365" y1="19.3408" x2="82.2365"
            y2="3.54993" gradientUnits="userSpaceOnUse">
            <stop stop-color="#2CE1FF" />
            <stop offset="0.2592" stop-color="#2DCDFF" />
            <stop offset="0.7886" stop-color="#3099FF" />
            <stop offset="1" stop-color="#3182FF" />
        </linearGradient>
        <linearGradient id="paint3_linear_15231_261" x1="101.483" y1="19.3408" x2="101.483"
            y2="3.54993" gradientUnits="userSpaceOnUse">
            <stop stop-color="#2CE1FF" />
            <stop offset="0.2592" stop-color="#2DCDFF" />
            <stop offset="0.7886" stop-color="#3099FF" />
            <stop offset="1" stop-color="#3182FF" />
        </linearGradient>
    </defs>
</svg>