<svg width="22" height="14" viewBox="0 0 22 14" fill="none" xmlns="http://www.w3.org/2000/svg">
<path d="M4.50507 2.73551C8.09326 -0.911838 13.9092 -0.911838 17.4974 2.73551L17.9286 3.17567C18.107 3.35842 18.107 3.65443 17.9286 3.83719L16.4517 5.33783C16.3625 5.42792 16.2163 5.42792 16.1271 5.33783L15.5323 4.73294C13.0295 2.18984 8.97049 2.18984 6.46767 4.73294L5.83082 5.37902C5.74161 5.46911 5.5954 5.46911 5.5062 5.37902L4.02929 3.87837C3.85087 3.69562 3.85087 3.39961 4.02929 3.21685L4.50259 2.73551H4.50507ZM20.5528 5.83976L21.8662 7.17567C22.0446 7.35843 22.0446 7.65444 21.8662 7.83719L15.9387 13.8629C15.7603 14.0457 15.4679 14.0457 15.2895 13.8629L11.0818 9.58751C11.0372 9.54118 10.9653 9.54118 10.9182 9.58751L6.71052 13.8629C6.5321 14.0457 6.23969 14.0457 6.06128 13.8629L0.133814 7.83719C-0.0446046 7.65444 -0.0446046 7.35843 0.133814 7.17567L1.44717 5.83976C1.62559 5.65701 1.918 5.65701 2.09642 5.83976L6.30412 10.1152C6.34873 10.1615 6.42059 10.1615 6.46767 10.1152L10.6754 5.83976C10.8538 5.65701 11.1462 5.65701 11.3246 5.83976L15.5323 10.1178C15.5769 10.1641 15.6488 10.1641 15.6959 10.1178L19.9036 5.84234C20.082 5.65958 20.3744 5.65958 20.5528 5.84234V5.83976Z" fill="#5570FF"/>
</svg>
